{"glyphs":{"0":{"ha":1343,"x_min":0,"x_max":0,"o":"m 671 -28 b 1301 486 1068 -28 1301 163 b 671 1000 1301 810 1068 1000 b 42 486 274 1000 42 810 b 671 -28 42 163 274 -28 z m 671 271 b 500 479 554 271 500 336 b 671 685 500 619 554 685 b 843 479 789 685 843 619 b 671 271 843 336 789 271 z "},"1":{"ha":801,"x_min":0,"x_max":0,"o":"m 321 972 b 68 833 281 858 197 833 l 35 833 l 35 597 l 294 597 l 294 0 l 746 0 l 746 972 z "},"2":{"ha":1133,"x_min":0,"x_max":0,"o":"m 47 0 l 1099 0 l 1099 271 l 597 271 l 597 278 l 821 372 b 1096 683 1015 454 1096 547 b 535 1000 1096 875 935 1000 b 28 938 332 1000 144 968 l 28 639 b 394 696 124 668 264 696 b 614 597 550 696 614 657 b 388 419 614 543 561 492 l 44 276 z "},"3":{"ha":1146,"x_min":0,"x_max":0,"o":"m 256 415 b 465 428 342 425 413 428 b 701 343 643 428 701 399 b 471 256 701 285 638 256 b 76 321 288 256 154 290 l 76 33 b 586 -26 150 13 319 -26 b 1118 281 910 -26 1118 40 b 863 528 1118 458 1003 528 b 760 517 822 528 786 522 l 757 524 l 1057 644 l 1057 972 l 63 972 l 63 672 l 565 672 l 565 665 l 256 508 z "},"4":{"ha":1313,"x_min":0,"x_max":0,"o":"m 1264 428 l 1117 428 l 1117 972 l 472 972 l 42 456 l 42 167 l 665 167 l 665 0 l 1117 0 l 1117 167 l 1264 167 z m 385 428 l 658 760 l 665 760 l 665 428 z "},"5":{"ha":1151,"x_min":0,"x_max":0,"o":"m 76 26 b 533 -28 183 -6 332 -28 b 1117 290 974 -28 1117 83 b 672 576 1117 490 982 576 b 385 558 576 576 471 568 l 385 664 l 1058 664 l 1058 972 l 63 972 l 63 396 b 436 418 183 408 328 418 b 700 336 626 418 700 388 b 453 256 700 276 601 256 b 76 324 279 256 164 283 z "},"6":{"ha":1293,"x_min":0,"x_max":0,"o":"m 42 468 b 668 -28 42 92 269 -28 b 1265 301 1074 -28 1265 96 b 829 582 1265 519 1049 582 b 450 485 607 582 499 518 l 446 486 b 775 700 446 613 510 700 b 1199 633 924 700 1081 672 l 1199 939 b 714 1000 1068 975 886 1000 b 42 468 289 1000 42 861 z m 474 303 b 694 400 474 372 582 400 b 863 313 807 400 863 372 b 668 218 863 251 806 218 b 474 303 532 218 474 251 z "},"7":{"ha":1142,"x_min":0,"x_max":0,"o":"m 188 0 l 688 0 b 1086 625 688 260 756 463 l 1086 972 l 35 972 l 35 663 l 688 663 l 688 656 b 188 0 317 490 188 308 z "},"8":{"ha":1250,"x_min":0,"x_max":0,"o":"m 918 465 b 1211 713 1103 494 1211 563 b 625 1000 1211 900 1035 1000 b 39 713 215 1000 39 900 b 335 465 39 563 151 494 b 28 235 124 438 28 367 b 625 -28 28 53 211 -28 b 1222 235 1040 -28 1222 53 b 918 465 1222 367 1128 436 z m 625 713 b 788 632 739 713 788 685 b 625 551 788 579 739 551 b 463 632 515 551 463 579 b 625 713 463 685 515 713 z m 625 235 b 444 317 496 235 444 264 b 625 399 444 369 496 399 b 806 317 754 399 806 369 b 625 235 806 264 754 235 z "},"9":{"ha":1279,"x_min":0,"x_max":0,"o":"m 1238 486 b 599 999 1238 767 1108 999 b 28 650 189 999 28 853 b 479 357 28 453 179 357 b 831 457 674 357 751 397 l 836 456 b 517 228 833 314 778 228 b 93 301 374 228 208 256 l 93 40 b 599 -28 221 1 413 -28 b 1238 486 1018 -28 1238 121 z m 792 626 b 608 538 792 565 732 538 b 431 626 485 538 431 565 b 608 714 431 686 483 714 b 792 626 735 714 792 686 z "},"\u0000":{"ha":250,"x_min":0,"x_max":0,"o":""}," ":{"ha":250,"x_min":0,"x_max":0,"o":""},"!":{"ha":543,"x_min":0,"x_max":0,"o":"m 411 363 l 486 972 l 57 972 l 133 363 z m 272 313 b 56 142 136 313 56 249 b 272 -29 56 35 136 -29 b 488 142 407 -29 488 35 b 272 313 488 249 407 313 z "},"\"":{"ha":946,"x_min":0,"x_max":0,"o":"m 235 974 b 42 817 104 974 42 915 b 215 675 42 729 90 675 b 324 693 263 675 299 683 l 322 683 b 204 614 317 622 256 614 b 69 643 124 614 85 635 l 69 533 b 203 518 111 524 157 518 b 446 744 418 518 446 642 b 235 974 446 903 379 974 z m 693 974 b 500 817 563 974 500 915 b 674 675 500 729 549 675 b 782 693 721 675 757 683 l 781 683 b 663 614 775 622 714 614 b 528 643 582 614 543 635 l 528 533 b 661 518 569 524 615 518 b 904 744 876 518 904 642 b 693 974 904 903 838 974 z "},"#":{"ha":1124,"x_min":0,"x_max":0,"o":"m 1110 535 l 1110 736 l 953 736 l 994 972 l 746 972 l 704 736 l 522 735 l 564 972 l 315 972 l 272 735 l 69 735 l 69 533 l 238 533 l 208 374 l 14 374 l 14 172 l 172 172 l 142 0 l 390 0 l 421 172 l 603 172 l 572 0 l 821 0 l 851 172 l 1054 172 l 1054 374 l 888 374 l 917 535 z m 639 374 l 457 374 l 486 533 l 668 535 z "},"%":{"ha":1350,"x_min":0,"x_max":0,"o":"m 371 506 b 672 753 560 506 672 597 b 371 1000 672 908 560 1000 b 71 753 182 1000 71 908 b 371 506 71 597 182 506 z m 1111 1000 l 682 546 l 735 479 l 1281 796 z m 371 650 b 289 750 319 650 289 690 b 371 847 289 810 319 847 b 453 750 422 847 453 810 b 371 650 453 690 422 650 z m 239 -28 l 668 426 l 615 493 l 69 176 z m 968 -28 b 1269 219 1157 -28 1269 64 b 968 467 1269 375 1157 467 b 668 219 779 467 668 375 b 968 -28 668 64 779 -28 z m 968 117 b 886 217 917 117 886 157 b 968 314 886 276 917 314 b 1050 217 1019 314 1050 276 b 968 117 1050 157 1019 117 z "},"&":{"ha":1304,"x_min":0,"x_max":0,"o":"m 1196 568 l 1196 643 l 854 643 l 854 568 l 663 568 b 476 649 517 568 476 606 b 714 733 476 697 528 733 b 1068 701 835 733 967 718 l 1068 964 b 644 1000 953 983 796 1000 b 81 719 264 1000 81 904 b 381 492 81 556 224 494 l 381 483 b 28 246 210 478 28 432 b 599 -28 28 97 144 -28 b 1203 321 988 -28 1203 64 l 1203 382 l 1283 382 l 1283 568 z m 847 336 b 621 211 847 231 733 211 b 431 300 472 211 431 246 b 592 382 431 360 482 382 l 847 382 z "},"'":{"ha":488,"x_min":0,"x_max":0,"o":"m 235 974 b 42 817 104 974 42 915 b 215 675 42 729 90 675 b 324 693 263 675 299 683 l 322 683 b 204 614 317 622 256 614 b 69 643 124 614 85 635 l 69 533 b 203 518 111 524 157 518 b 446 744 418 518 446 642 b 235 974 446 903 379 974 z "},"(":{"ha":557,"x_min":0,"x_max":0,"o":"m 557 -181 b 347 426 421 24 347 225 b 557 1000 347 628 421 824 l 261 1000 b 42 426 125 842 42 632 b 261 -181 42 219 125 6 z "},")":{"ha":557,"x_min":0,"x_max":0,"o":"m 0 -181 l 296 -181 b 515 426 432 6 515 219 b 296 1000 515 632 432 842 l 0 1000 b 210 426 136 824 210 628 b 0 -181 210 225 136 24 z "},"*":{"ha":639,"x_min":0,"x_max":0,"o":"m 611 790 l 540 914 l 378 804 l 390 1000 l 249 1000 l 261 806 l 99 914 l 28 790 l 203 704 l 28 618 l 99 494 l 261 603 l 249 408 l 390 408 l 378 603 l 540 494 l 611 618 l 436 704 z "},"+":{"ha":806,"x_min":0,"x_max":0,"o":"m 272 279 l 272 63 l 533 63 l 533 279 l 750 279 l 750 540 l 533 540 l 533 757 l 272 757 l 272 540 l 56 540 l 56 279 z "},",":{"ha":581,"x_min":0,"x_max":0,"o":"m 279 347 b 56 165 128 347 56 279 b 257 0 56 64 113 0 b 382 21 313 0 353 10 l 381 11 b 244 -69 375 -60 304 -69 b 88 -36 151 -69 106 -46 l 88 -164 b 236 -181 131 -174 182 -181 b 525 92 481 -181 525 -39 b 279 347 525 264 447 347 z "},"-":{"ha":806,"x_min":0,"x_max":0,"o":"m 56 279 l 750 279 l 750 540 l 56 540 z "},".":{"ha":588,"x_min":0,"x_max":0,"o":"m 294 347 b 56 160 144 347 56 278 b 294 -28 56 42 144 -28 b 532 160 443 -28 532 42 b 294 347 532 278 443 347 z "},"/":{"ha":843,"x_min":0,"x_max":0,"o":"m 482 1111 l -7 -181 l 354 -181 l 843 1111 z "},":":{"ha":546,"x_min":0,"x_max":0,"o":"m 281 847 b 42 660 131 847 42 778 b 281 472 42 542 131 472 b 518 660 429 472 518 542 b 281 847 518 778 429 847 z m 281 347 b 42 160 131 347 42 278 b 281 -28 42 42 131 -28 b 518 160 429 -28 518 42 b 281 347 518 278 429 347 z "},";":{"ha":540,"x_min":0,"x_max":0,"o":"m 267 472 b 504 660 415 472 504 542 b 267 847 504 778 415 847 b 28 660 117 847 28 778 b 267 472 28 542 117 472 z m 267 347 b 43 165 115 347 43 279 b 244 0 43 64 100 0 b 369 21 300 0 340 10 l 368 11 b 232 -69 363 -60 292 -69 b 75 -36 139 -69 93 -46 l 75 -164 b 224 -181 118 -174 169 -181 b 513 92 468 -181 513 -39 b 267 347 513 264 435 347 z "},"<":{"ha":585,"x_min":0,"x_max":0,"o":"m 208 694 l 69 410 l 208 125 l 529 125 l 383 410 l 529 694 z "},"=":{"ha":806,"x_min":0,"x_max":0,"o":"m 56 446 l 750 446 l 750 707 l 56 707 z m 56 113 l 750 113 l 750 374 l 56 374 z "},">":{"ha":585,"x_min":0,"x_max":0,"o":"m 376 694 l 56 694 l 201 410 l 56 125 l 376 125 l 515 410 z "},"?":{"ha":860,"x_min":0,"x_max":0,"o":"m 89 585 l 89 390 b 322 375 167 379 246 375 b 804 688 656 375 804 456 b 369 1000 804 903 678 1000 b 42 965 231 1000 113 981 l 42 728 b 285 753 125 743 214 753 b 447 664 388 753 447 732 b 263 571 447 610 410 571 b 89 585 200 571 136 578 z m 358 314 b 142 143 222 314 142 250 b 358 -28 142 36 222 -28 b 574 143 493 -28 574 36 b 358 314 574 250 493 314 z "},"@":{"ha":1710,"x_min":0,"x_max":0,"o":"m 875 1051 b 63 408 310 1051 63 851 b 839 -219 63 -28 308 -219 b 1213 -176 1000 -219 1115 -201 l 1213 -42 b 847 -87 1161 -58 1058 -87 b 215 418 385 -87 215 51 b 879 919 215 790 383 919 b 1494 490 1335 919 1494 813 b 1371 258 1494 350 1465 258 b 1289 361 1319 258 1289 285 l 1289 729 l 942 729 l 942 546 l 938 546 b 665 751 904 686 815 751 b 363 410 447 751 363 615 b 674 68 363 150 499 68 b 938 235 800 68 894 111 l 942 235 b 1226 68 950 122 1035 68 b 1647 478 1553 68 1647 225 b 875 1051 1647 878 1404 1051 z m 813 274 b 693 393 732 274 693 314 b 813 511 693 471 732 511 b 932 393 893 511 932 471 b 813 274 932 313 892 274 z "},"A":{"ha":1367,"x_min":0,"x_max":0,"o":"m 908 0 l 1367 0 l 1058 972 l 308 972 l 0 0 l 444 0 l 496 169 l 860 169 z m 568 413 l 675 767 l 688 767 l 789 413 z "},"B":{"ha":1368,"x_min":0,"x_max":0,"o":"m 960 493 l 960 500 b 1313 729 1153 508 1313 521 b 935 972 1313 925 1172 972 l 69 972 l 69 0 l 917 0 b 1326 256 1146 0 1326 36 b 960 493 1326 478 1144 486 z m 735 719 b 854 639 811 719 854 707 b 706 553 854 568 807 553 l 528 553 l 528 719 z m 731 228 l 528 228 l 528 385 l 761 385 b 861 307 828 382 861 365 b 731 228 861 243 821 228 z "},"C":{"ha":1211,"x_min":0,"x_max":0,"o":"m 1149 32 l 1149 369 b 810 314 1088 346 979 314 b 500 481 568 314 500 378 b 788 644 500 594 583 644 b 1163 593 889 644 1031 632 l 1163 946 b 694 1000 990 985 825 1000 b 49 479 306 1000 49 867 b 692 -28 49 79 324 -28 b 1149 32 860 -28 1018 -6 z "},"D":{"ha":1326,"x_min":0,"x_max":0,"o":"m 722 972 l 69 972 l 69 0 l 718 0 b 1278 492 1078 3 1278 129 b 722 972 1278 844 1089 972 z m 644 278 l 521 278 l 521 674 l 644 674 b 819 476 785 674 819 603 b 644 278 819 326 771 281 z "},"E":{"ha":1140,"x_min":0,"x_max":0,"o":"m 528 276 l 528 385 l 1057 385 l 1057 574 l 528 574 l 528 683 l 1078 683 l 1078 972 l 69 972 l 69 0 l 1085 0 l 1085 276 z "},"F":{"ha":1133,"x_min":0,"x_max":0,"o":"m 1083 660 l 1085 972 l 69 972 l 69 0 l 528 0 l 528 274 l 1056 274 l 1057 538 l 528 538 l 528 660 z "},"G":{"ha":1315,"x_min":0,"x_max":0,"o":"m 838 676 b 1260 624 947 676 1110 663 l 1260 940 b 743 1000 1092 982 899 1000 b 49 471 293 1000 49 846 b 706 -28 49 122 257 -28 b 1246 57 958 -28 1147 19 l 1246 499 l 836 499 l 836 272 b 733 264 804 267 769 264 b 507 463 561 264 507 333 b 838 676 507 581 551 676 z "},"H":{"ha":1361,"x_min":0,"x_max":0,"o":"m 833 972 l 833 590 l 528 590 l 528 972 l 69 972 l 69 0 l 528 0 l 528 278 l 833 278 l 833 0 l 1292 0 l 1292 972 z "},"I":{"ha":597,"x_min":0,"x_max":0,"o":"m 69 972 l 69 0 l 528 0 l 528 972 z "},"J":{"ha":886,"x_min":0,"x_max":0,"o":"m 28 332 l 28 22 b 407 -28 110 -4 247 -28 b 831 292 674 -28 831 39 l 831 972 l 372 972 l 372 415 b 218 296 372 318 306 296 b 28 332 131 296 63 318 z "},"K":{"ha":1353,"x_min":0,"x_max":0,"o":"m 972 457 l 1346 972 l 846 972 l 536 493 l 528 493 l 528 972 l 69 972 l 69 -3 l 528 -3 l 528 432 l 536 432 l 832 -3 l 1353 0 z "},"L":{"ha":1090,"x_min":0,"x_max":0,"o":"m 528 333 l 528 972 l 69 972 l 69 0 l 1042 0 l 1042 333 z "},"M":{"ha":1694,"x_min":0,"x_max":0,"o":"m 69 0 l 472 0 l 472 639 l 481 639 l 667 0 l 1014 0 l 1200 639 l 1208 639 l 1208 0 l 1625 0 l 1625 972 l 990 972 l 865 482 l 857 482 l 732 972 l 69 972 z "},"N":{"ha":1368,"x_min":0,"x_max":0,"o":"m 69 0 l 493 0 l 493 501 l 501 501 l 779 0 l 1299 0 l 1299 972 l 875 972 l 875 475 l 867 475 l 607 972 l 69 972 z "},"O":{"ha":1403,"x_min":0,"x_max":0,"o":"m 701 -28 b 1354 483 1149 -28 1354 133 b 701 1000 1354 838 1149 1000 b 49 483 254 1000 49 838 b 701 -28 49 133 254 -28 z m 701 674 b 882 476 825 674 882 611 b 701 278 882 340 825 278 b 521 476 578 278 521 340 b 701 674 521 611 578 674 z "},"P":{"ha":1333,"x_min":0,"x_max":0,"o":"m 801 972 l 69 972 l 69 0 l 528 0 l 528 213 l 760 213 b 1299 588 1103 213 1299 260 b 801 972 1299 925 1085 972 z m 703 460 l 528 460 l 528 686 l 703 686 b 833 575 794 686 833 658 b 703 460 833 492 794 463 z "},"Q":{"ha":1403,"x_min":0,"x_max":0,"o":"m 1354 483 b 701 1000 1354 838 1149 1000 b 49 483 254 1000 49 838 b 701 -28 49 133 254 -28 l 718 -28 l 753 -153 l 1149 -153 l 1043 18 b 1354 483 1254 88 1354 239 z m 521 476 b 701 674 521 611 578 674 b 882 476 825 674 882 611 b 701 278 882 340 825 278 b 521 476 578 278 521 340 z "},"R":{"ha":1354,"x_min":0,"x_max":0,"o":"m 833 0 l 1319 0 l 1115 325 b 1306 625 1242 365 1306 454 b 822 972 1306 897 1146 972 l 69 972 l 69 0 l 528 0 l 528 278 l 713 278 z m 528 707 l 693 707 b 847 604 796 707 847 694 b 693 496 847 514 796 496 l 528 496 z "},"S":{"ha":1167,"x_min":0,"x_max":0,"o":"m 1114 622 l 1114 953 b 611 1000 956 983 767 1000 b 28 671 189 1000 28 876 b 688 304 28 256 688 436 b 515 247 688 276 658 247 b 78 361 303 247 157 311 l 78 38 b 560 -28 178 3 350 -28 b 1139 297 994 -28 1139 101 b 486 643 1139 713 486 522 b 667 693 486 671 521 693 b 1114 622 849 693 1010 658 z "},"T":{"ha":1167,"x_min":0,"x_max":0,"o":"m 1139 972 l 28 972 l 28 646 l 354 646 l 354 0 l 813 0 l 813 646 l 1139 646 z "},"U":{"ha":1286,"x_min":0,"x_max":0,"o":"m 1231 972 l 772 972 l 772 404 b 643 288 772 303 715 288 b 514 404 571 288 514 303 l 514 972 l 56 972 l 56 388 b 643 -28 56 60 272 -28 b 1231 388 1014 -28 1231 60 z "},"V":{"ha":1314,"x_min":0,"x_max":0,"o":"m 0 974 l 294 1 l 1019 1 l 1314 974 l 835 974 l 682 250 l 674 250 l 493 974 z "},"W":{"ha":1760,"x_min":0,"x_max":0,"o":"m 7 972 l 274 0 l 788 0 l 886 474 l 894 474 l 1000 0 l 1514 0 l 1753 972 l 1322 972 l 1228 346 l 1219 346 l 1107 972 l 688 972 l 575 346 l 567 346 l 458 972 z "},"X":{"ha":1269,"x_min":0,"x_max":0,"o":"m -14 972 l 294 454 l 0 0 l 451 -3 l 614 297 l 776 -3 l 1269 0 l 976 442 l 1283 972 l 832 972 l 656 651 l 479 972 z "},"Y":{"ha":1253,"x_min":0,"x_max":0,"o":"m -28 972 l 396 292 l 396 0 l 854 0 l 854 292 l 1281 972 l 801 972 l 642 628 l 633 628 l 465 972 z "},"Z":{"ha":1178,"x_min":0,"x_max":0,"o":"m 56 646 l 614 646 l 614 638 l 69 319 l 69 0 l 1136 0 l 1136 285 l 592 285 l 592 293 l 1122 618 l 1122 972 l 56 972 z "},"[":{"ha":521,"x_min":0,"x_max":0,"o":"m 507 713 l 507 972 l 42 972 l 42 -181 l 507 -181 l 507 79 l 343 79 l 343 713 z "},"\\":{"ha":843,"x_min":0,"x_max":0,"o":"m 361 1111 l 0 1111 l 489 -181 l 850 -181 z "},"]":{"ha":521,"x_min":0,"x_max":0,"o":"m 479 972 l 14 972 l 14 714 l 178 714 l 178 81 l 14 81 l 14 -181 l 479 -181 z "},"^":{"ha":722,"x_min":0,"x_max":0,"o":"m 69 567 l 278 567 l 357 794 l 365 794 l 444 567 l 653 567 l 492 931 l 231 931 z "},"_":{"ha":750,"x_min":0,"x_max":0,"o":"m 0 -153 l 750 -153 l 750 -28 l 0 -28 z "},"`":{"ha":722,"x_min":0,"x_max":0,"o":"m 681 1129 l 64 1244 l 42 1131 l 664 1040 z "},"a":{"ha":1313,"x_min":0,"x_max":0,"o":"m 799 819 l 799 585 l 792 585 b 446 847 750 764 635 847 b 56 415 165 847 56 674 b 454 -28 56 78 229 -28 b 792 186 617 -28 738 28 l 799 186 l 799 0 l 1243 0 l 1243 819 z m 632 236 b 479 388 529 236 479 286 b 632 540 479 489 529 540 b 785 388 735 540 785 489 b 632 236 785 285 733 236 z "},"b":{"ha":1319,"x_min":0,"x_max":0,"o":"m 875 847 b 521 585 685 847 563 771 l 514 585 l 514 1028 l 69 1028 l 69 0 l 514 0 l 514 186 l 521 186 b 865 -28 576 28 701 -28 b 1264 415 1090 -28 1264 78 b 875 847 1264 681 1156 847 z m 683 236 b 528 389 579 236 528 286 b 685 540 528 490 578 540 b 840 389 790 540 840 490 b 683 236 840 288 790 236 z "},"c":{"ha":1063,"x_min":0,"x_max":0,"o":"m 1007 31 l 1007 310 b 715 254 951 288 850 254 b 479 397 532 254 479 317 b 700 535 479 490 549 535 b 1014 488 776 535 889 524 l 1014 803 b 615 847 863 836 728 847 b 49 406 269 847 49 733 b 615 -28 49 69 281 -28 b 1007 31 790 -28 918 0 z "},"d":{"ha":1319,"x_min":0,"x_max":0,"o":"m 806 1028 l 806 585 l 799 585 b 446 847 757 771 636 847 b 56 415 165 847 56 681 b 454 -28 56 78 229 -28 b 799 186 618 -28 743 28 l 806 186 l 806 0 l 1250 0 l 1250 1028 z m 635 236 b 479 388 529 236 479 286 b 636 540 479 489 529 540 b 792 388 742 540 792 489 b 635 236 792 285 740 236 z "},"e":{"ha":1174,"x_min":0,"x_max":0,"o":"m 1132 432 b 610 847 1132 726 946 847 b 49 404 260 847 49 718 b 617 -28 49 104 239 -28 b 1061 38 781 -28 942 -3 l 1061 274 b 708 213 1013 256 883 213 b 458 314 578 213 485 236 l 1124 311 b 1132 432 1129 356 1132 396 z m 618 592 b 779 450 721 592 772 544 l 451 447 b 618 592 458 544 514 592 z "},"f":{"ha":1004,"x_min":0,"x_max":0,"o":"m 783 778 b 969 754 849 778 919 765 l 969 1033 b 672 1056 892 1044 785 1056 b 196 675 338 1056 196 956 l 196 644 l 21 644 l 21 369 l 190 369 l 190 0 l 635 0 l 635 369 l 956 369 l 956 644 l 613 644 l 613 649 b 783 778 613 739 668 778 z "},"g":{"ha":1311,"x_min":0,"x_max":0,"o":"m 799 819 l 799 613 l 792 613 b 447 847 750 771 642 847 b 56 446 158 847 56 676 b 456 51 56 151 225 51 b 792 233 624 51 739 104 l 799 233 l 799 101 b 553 -46 799 11 754 -46 b 160 38 360 -46 225 6 l 160 -258 b 650 -319 257 -285 422 -319 b 1242 67 1082 -319 1242 -194 l 1242 819 z m 631 285 b 479 428 526 285 479 331 b 631 571 479 525 526 571 b 785 428 736 571 785 525 b 631 285 785 331 736 285 z "},"h":{"ha":1260,"x_min":0,"x_max":0,"o":"m 854 847 b 507 576 632 847 542 749 l 500 576 l 500 1028 l 69 1028 l 69 0 l 514 0 l 514 396 b 633 521 514 483 558 521 b 753 389 711 521 753 481 l 753 0 l 1197 0 l 1197 515 b 854 847 1197 751 1072 847 z "},"i":{"ha":583,"x_min":0,"x_max":0,"o":"m 292 889 b 542 1000 485 889 542 918 b 292 1111 542 1082 485 1111 b 42 1000 99 1111 42 1082 b 292 889 42 918 99 889 z m 69 819 l 69 0 l 514 0 l 514 819 z "},"j":{"ha":658,"x_min":0,"x_max":0,"o":"m 353 889 b 603 1000 546 889 603 918 b 353 1111 603 1082 546 1111 b 103 1000 160 1111 103 1082 b 353 889 103 918 160 889 z m 569 -31 l 569 819 l 132 819 l 132 39 b 28 -50 132 -26 90 -50 b -69 -35 -6 -50 -40 -43 l -69 -294 b 194 -319 22 -314 125 -319 b 569 -31 481 -319 569 -226 z "},"k":{"ha":1246,"x_min":0,"x_max":0,"o":"m 919 390 l 1232 819 l 760 819 l 517 424 l 514 424 l 514 1028 l 69 1028 l 69 -3 l 514 -3 l 514 374 l 517 374 l 739 -3 l 1246 0 z "},"l":{"ha":583,"x_min":0,"x_max":0,"o":"m 69 0 l 514 0 l 514 1028 l 69 1028 z "},"m":{"ha":1888,"x_min":0,"x_max":0,"o":"m 1488 847 b 1165 590 1292 847 1204 771 b 840 847 1140 772 1022 847 b 507 576 633 847 542 749 l 500 576 l 500 819 l 69 819 l 69 0 l 514 0 l 514 396 b 619 521 514 483 558 521 b 725 389 683 521 725 481 l 725 0 l 1169 0 l 1169 396 b 1275 521 1169 483 1214 521 b 1381 389 1339 521 1381 481 l 1381 0 l 1825 0 l 1825 515 b 1488 847 1825 751 1707 847 z "},"n":{"ha":1271,"x_min":0,"x_max":0,"o":"m 854 847 b 499 576 619 847 538 747 l 492 576 l 492 819 l 69 819 l 69 0 l 514 0 l 514 396 b 639 521 514 483 558 521 b 764 389 722 521 764 481 l 764 0 l 1208 0 l 1208 515 b 854 847 1208 751 1085 847 z "},"o":{"ha":1267,"x_min":0,"x_max":0,"o":"m 633 -28 b 1218 404 1036 -28 1218 104 b 633 847 1218 706 1033 847 b 49 404 233 847 49 706 b 633 -28 49 104 231 -28 z m 633 556 b 794 393 744 556 794 504 b 633 231 794 282 744 231 b 472 393 522 231 472 282 b 633 556 472 504 522 556 z "},"p":{"ha":1319,"x_min":0,"x_max":0,"o":"m 875 847 b 521 585 685 847 563 771 l 514 585 l 514 819 l 69 819 l 69 -292 l 514 -292 l 514 186 l 521 186 b 865 -28 576 28 701 -28 b 1264 415 1090 -28 1264 78 b 875 847 1264 681 1156 847 z m 683 236 b 528 389 579 236 528 286 b 685 540 528 490 578 540 b 840 389 790 540 840 490 b 683 236 840 288 790 236 z "},"q":{"ha":1319,"x_min":0,"x_max":0,"o":"m 806 819 l 806 585 l 799 585 b 446 847 757 771 636 847 b 56 415 165 847 56 681 b 454 -28 56 78 229 -28 b 799 186 618 -28 743 28 l 806 186 l 806 -292 l 1250 -292 l 1250 819 z m 635 236 b 479 388 529 236 479 286 b 636 540 479 489 529 540 b 792 388 742 540 792 489 b 635 236 792 285 740 236 z "},"r":{"ha":965,"x_min":0,"x_max":0,"o":"m 839 847 b 507 539 608 847 519 714 l 499 539 l 499 819 l 69 819 l 69 0 l 514 0 l 514 281 b 738 485 514 419 582 485 b 924 461 797 485 861 475 l 924 842 b 839 847 901 844 872 847 z "},"s":{"ha":1021,"x_min":0,"x_max":0,"o":"m 951 515 l 951 806 b 536 847 833 832 675 847 b 35 568 146 847 35 724 b 596 268 35 219 596 364 b 436 219 596 239 544 219 b 75 306 268 219 143 267 l 75 31 b 508 -28 175 -1 333 -28 b 986 243 865 -28 986 83 b 438 531 986 582 438 431 b 596 572 438 551 461 572 b 951 515 758 572 878 542 z "},"t":{"ha":1032,"x_min":0,"x_max":0,"o":"m 997 543 l 997 819 l 642 819 l 642 1000 l 197 944 l 197 819 l 14 819 l 14 543 l 197 543 l 197 264 b 586 -28 197 43 333 -28 b 950 15 732 -28 867 -4 l 950 271 b 799 244 917 258 867 244 b 642 369 685 244 642 283 l 642 543 z "},"u":{"ha":1257,"x_min":0,"x_max":0,"o":"m 743 819 l 743 396 b 625 271 743 308 699 271 b 507 403 549 271 507 311 l 507 819 l 63 819 l 63 304 b 410 -28 63 68 190 -28 b 758 215 644 -28 714 79 l 765 215 l 765 0 l 1188 0 l 1188 819 z "},"v":{"ha":1194,"x_min":0,"x_max":0,"o":"m 0 819 l 289 0 l 917 0 l 1194 819 l 743 819 l 618 217 l 611 217 l 458 819 z "},"w":{"ha":1694,"x_min":0,"x_max":0,"o":"m 14 819 l 226 0 l 764 0 l 854 468 l 861 468 l 951 0 l 1472 0 l 1681 819 l 1292 819 l 1213 271 l 1206 271 l 1110 819 l 619 819 l 536 271 l 529 271 l 438 819 z "},"x":{"ha":1157,"x_min":0,"x_max":0,"o":"m 0 819 l 246 379 l 13 0 l 422 -3 l 561 269 l 700 -3 l 1144 0 l 911 379 l 1157 819 l 747 819 l 596 522 l 444 819 z "},"y":{"ha":1217,"x_min":0,"x_max":0,"o":"m 0 819 l 293 68 l 611 68 l 610 61 b 390 -39 601 19 560 -39 b 111 14 268 -39 167 -8 l 111 -274 b 464 -319 196 -299 325 -319 b 974 74 849 -319 904 -140 l 1217 819 l 765 819 l 635 242 l 626 242 l 458 819 z "},"z":{"ha":1072,"x_min":0,"x_max":0,"o":"m 49 535 l 529 535 l 529 528 l 63 288 l 63 0 l 1024 0 l 1024 246 l 550 246 l 550 253 l 1010 489 l 1010 822 l 49 822 z "},"{":{"ha":650,"x_min":0,"x_max":0,"o":"m 472 601 l 472 675 b 593 789 472 764 500 789 l 636 789 l 636 972 l 497 972 b 178 746 244 972 178 900 l 178 610 b 82 508 178 529 150 508 l 42 508 l 42 285 l 82 285 b 178 183 150 285 178 264 l 178 46 b 497 -181 178 -108 244 -181 l 636 -181 l 636 3 l 593 3 b 472 117 500 3 472 28 l 472 192 b 229 393 472 313 419 393 l 229 400 b 472 601 419 400 472 481 z "},"|":{"ha":375,"x_min":0,"x_max":0,"o":"m 69 1051 l 69 -219 l 306 -219 l 306 1051 z "},"}":{"ha":650,"x_min":0,"x_max":0,"o":"m 568 508 b 472 610 500 508 472 529 l 472 746 b 153 972 472 900 406 972 l 14 972 l 14 789 l 57 789 b 178 675 150 789 178 764 l 178 601 b 421 400 178 481 203 400 l 421 393 b 178 192 203 393 178 313 l 178 117 b 57 3 178 28 150 3 l 14 3 l 14 -181 l 153 -181 b 472 46 406 -181 472 -108 l 472 183 b 568 285 472 264 500 285 l 608 285 l 608 508 z "},"~":{"ha":894,"x_min":0,"x_max":0,"o":"m 69 351 l 222 351 b 297 449 222 407 243 449 b 608 344 383 449 451 344 b 825 626 738 344 825 414 l 672 626 b 597 529 672 568 646 529 b 286 633 518 529 440 633 b 69 351 160 633 69 564 z "},"¡":{"ha":543,"x_min":0,"x_max":0,"o":"m 272 506 b 488 676 407 506 488 569 b 272 847 488 783 407 847 b 56 676 136 847 56 783 b 272 506 56 569 136 506 z m 411 456 l 133 456 l 57 -154 l 486 -154 z "},"¦":{"ha":375,"x_min":0,"x_max":0,"o":"m 69 524 l 306 524 l 306 968 l 69 968 z m 69 -136 l 306 -136 l 306 308 l 69 308 z "},"§":{"ha":1046,"x_min":0,"x_max":0,"o":"m 831 240 b 976 435 906 274 976 331 b 429 699 976 722 429 596 b 603 747 429 718 449 747 b 943 693 757 747 872 718 l 943 960 b 550 1000 831 986 679 1000 b 69 731 176 1000 69 883 b 208 529 69 617 128 560 b 69 346 142 506 69 454 b 603 67 69 53 603 165 b 456 19 603 47 582 19 b 108 101 286 19 168 69 l 108 -153 b 511 -208 217 -183 360 -208 b 949 57 833 -208 949 -94 b 831 240 949 156 900 210 z m 354 378 b 447 492 354 426 396 467 b 676 396 571 483 676 475 b 593 285 676 349 640 311 b 354 378 467 293 354 299 z "},"©":{"ha":1411,"x_min":0,"x_max":0,"o":"m 707 -147 b 1349 408 1110 -147 1349 60 b 707 969 1349 761 1110 969 b 63 408 303 969 63 761 b 707 -147 63 60 303 -147 z m 707 -33 b 178 408 375 -33 178 131 b 707 846 178 683 375 846 b 1233 408 1038 846 1233 683 b 707 -33 1233 131 1038 -33 z m 707 113 b 978 147 801 113 900 126 l 978 333 b 789 300 935 317 872 300 b 621 396 658 300 621 342 b 769 488 621 457 668 488 b 982 457 819 488 896 481 l 982 674 b 715 704 881 696 788 704 b 331 401 479 704 331 626 b 707 113 331 174 488 113 z "},"ª":{"ha":1313,"x_min":0,"x_max":0,"o":"m 799 819 l 799 585 l 792 585 b 446 847 750 764 635 847 b 56 415 165 847 56 674 b 454 -28 56 78 229 -28 b 792 186 617 -28 738 28 l 799 186 l 799 0 l 1243 0 l 1243 819 z m 632 236 b 479 388 529 236 479 286 b 632 540 479 489 529 540 b 785 388 735 540 785 489 b 632 236 785 285 733 236 z "},"«":{"ha":1057,"x_min":0,"x_max":0,"o":"m 208 694 l 69 410 l 208 125 l 529 125 l 383 410 l 529 694 z m 681 694 l 542 410 l 681 125 l 1001 125 l 856 410 l 1001 694 z "},"®":{"ha":689,"x_min":0,"x_max":0,"o":"m 344 1000 b 21 715 142 1000 21 894 b 344 433 21 538 142 433 b 668 715 547 433 668 538 b 344 1000 668 894 547 1000 z m 344 510 b 107 715 183 510 107 576 b 344 921 107 854 183 921 b 582 715 506 921 582 854 b 344 510 582 576 506 510 z m 504 754 b 382 854 504 824 460 854 l 200 854 l 200 579 l 289 579 l 289 658 l 367 658 l 401 579 l 508 579 l 450 671 b 504 754 486 683 504 711 z m 289 781 l 363 781 b 410 749 397 781 410 769 b 363 717 410 728 397 717 l 289 717 z "},"¶":{"ha":1068,"x_min":0,"x_max":0,"o":"m 651 972 l 351 972 b 28 646 179 972 28 897 b 349 318 28 394 176 318 l 417 318 l 417 -132 l 651 -132 z m 750 972 l 750 -132 l 985 -132 l 985 972 z "},"·":{"ha":560,"x_min":0,"x_max":0,"o":"m 281 599 b 42 411 131 599 42 529 b 281 224 42 293 131 224 b 518 411 429 224 518 293 b 281 599 518 529 429 599 z "},"º":{"ha":1267,"x_min":0,"x_max":0,"o":"m 633 -28 b 1218 404 1036 -28 1218 104 b 633 847 1218 706 1033 847 b 49 404 233 847 49 706 b 633 -28 49 104 231 -28 z m 633 556 b 794 393 744 556 794 504 b 633 231 794 282 744 231 b 472 393 522 231 472 282 b 633 556 472 504 522 556 z "},"»":{"ha":1057,"x_min":0,"x_max":0,"o":"m 376 694 l 56 694 l 201 410 l 56 125 l 376 125 l 515 410 z m 849 694 l 528 694 l 674 410 l 528 125 l 849 125 l 988 410 z "},"¿":{"ha":860,"x_min":0,"x_max":0,"o":"m 501 506 b 718 676 638 506 718 569 b 501 847 718 783 638 847 b 286 676 367 847 286 783 b 501 506 286 569 367 506 z m 771 235 l 771 429 b 529 446 692 440 614 446 b 56 132 204 446 56 364 b 490 -181 56 -83 182 -181 b 818 -137 633 -181 742 -160 l 818 103 b 574 67 733 78 646 67 b 413 157 472 67 413 89 b 597 249 413 211 451 249 b 771 235 660 249 724 242 z "},"À":{"ha":1367,"x_min":0,"x_max":0,"o":"m 1003 1129 l 386 1244 l 364 1131 l 986 1040 z m 908 0 l 1367 0 l 1058 972 l 308 972 l 0 0 l 444 0 l 496 169 l 860 169 z m 568 413 l 675 767 l 688 767 l 789 413 z "},"Á":{"ha":1367,"x_min":0,"x_max":0,"o":"m 1003 1131 l 981 1244 l 364 1129 l 381 1040 z m 908 0 l 1367 0 l 1058 972 l 308 972 l 0 0 l 444 0 l 496 169 l 860 169 z m 568 413 l 675 767 l 688 767 l 789 413 z "},"Â":{"ha":1367,"x_min":0,"x_max":0,"o":"m 683 1157 l 994 1043 l 1036 1132 l 711 1261 l 656 1261 l 331 1132 l 372 1043 z m 908 0 l 1367 0 l 1058 972 l 308 972 l 0 0 l 444 0 l 496 169 l 860 169 z m 568 413 l 675 767 l 688 767 l 789 413 z "},"Ã":{"ha":1367,"x_min":0,"x_max":0,"o":"m 515 1125 b 874 1050 593 1125 753 1050 b 1024 1229 982 1050 1024 1110 l 901 1229 b 858 1157 901 1183 899 1157 b 490 1232 790 1157 608 1232 b 343 1053 385 1232 343 1172 l 463 1053 b 515 1125 463 1096 467 1125 z m 908 0 l 1367 0 l 1058 972 l 308 972 l 0 0 l 444 0 l 496 169 l 860 169 z m 568 413 l 675 767 l 688 767 l 789 413 z "},"Ä":{"ha":1367,"x_min":0,"x_max":0,"o":"m 515 1043 b 644 1142 596 1043 644 1081 b 515 1240 644 1203 596 1240 b 386 1142 435 1240 386 1203 b 515 1043 386 1081 435 1043 z m 850 1043 b 979 1142 931 1043 979 1081 b 850 1240 979 1203 931 1240 b 721 1142 769 1240 721 1203 b 850 1043 721 1081 769 1043 z m 908 0 l 1367 0 l 1058 972 l 308 972 l 0 0 l 444 0 l 496 169 l 860 169 z m 568 413 l 675 767 l 688 767 l 789 413 z "},"Å":{"ha":1367,"x_min":0,"x_max":0,"o":"m 683 1032 b 868 1146 810 1032 868 1068 b 683 1260 868 1224 810 1260 b 499 1146 557 1260 499 1224 b 683 1032 499 1068 557 1032 z m 683 1194 b 758 1146 732 1194 758 1179 b 683 1097 758 1113 732 1097 b 608 1146 635 1097 608 1113 b 683 1194 608 1179 635 1194 z m 908 0 l 1367 0 l 1058 972 l 308 972 l 0 0 l 444 0 l 496 169 l 860 169 z m 568 413 l 675 767 l 688 767 l 789 413 z "},"Æ":{"ha":1876,"x_min":0,"x_max":0,"o":"m 1264 276 l 1264 376 l 1793 376 l 1793 579 l 1264 579 l 1264 683 l 1814 683 l 1814 972 l 443 972 l -14 0 l 431 0 l 507 169 l 806 169 l 806 0 l 1821 0 l 1821 276 z m 792 806 l 806 806 l 806 413 l 615 413 z "},"Ç":{"ha":1211,"x_min":0,"x_max":0,"o":"m 788 644 b 1163 593 889 644 1031 632 l 1163 946 b 694 1000 990 985 825 1000 b 49 479 306 1000 49 867 b 519 -18 49 144 242 15 l 499 -89 l 481 -150 l 579 -150 b 632 -185 619 -150 632 -164 b 560 -221 632 -206 619 -221 b 432 -201 506 -221 457 -208 l 432 -304 b 581 -319 475 -314 525 -319 b 781 -190 725 -319 781 -282 b 625 -65 781 -85 707 -65 l 624 -65 l 639 -26 b 692 -28 656 -28 674 -28 b 1149 32 860 -28 1018 -6 l 1149 369 b 810 314 1088 346 979 314 b 500 481 568 314 500 378 b 788 644 500 594 583 644 z "},"È":{"ha":1140,"x_min":0,"x_max":0,"o":"m 893 1129 l 276 1244 l 254 1131 l 876 1040 z m 528 276 l 528 385 l 1057 385 l 1057 574 l 528 574 l 528 683 l 1078 683 l 1078 972 l 69 972 l 69 0 l 1085 0 l 1085 276 z "},"É":{"ha":1140,"x_min":0,"x_max":0,"o":"m 893 1131 l 871 1244 l 254 1129 l 271 1040 z m 528 276 l 528 385 l 1057 385 l 1057 574 l 528 574 l 528 683 l 1078 683 l 1078 972 l 69 972 l 69 0 l 1085 0 l 1085 276 z "},"Ê":{"ha":1140,"x_min":0,"x_max":0,"o":"m 574 1157 l 885 1043 l 926 1132 l 601 1261 l 546 1261 l 221 1132 l 263 1043 z m 528 276 l 528 385 l 1057 385 l 1057 574 l 528 574 l 528 683 l 1078 683 l 1078 972 l 69 972 l 69 0 l 1085 0 l 1085 276 z "},"Ë":{"ha":1140,"x_min":0,"x_max":0,"o":"m 406 1043 b 535 1142 486 1043 535 1081 b 406 1240 535 1203 486 1240 b 276 1142 325 1240 276 1203 b 406 1043 276 1081 325 1043 z m 740 1043 b 869 1142 821 1043 869 1081 b 740 1240 869 1203 821 1240 b 611 1142 660 1240 611 1203 b 740 1043 611 1081 660 1043 z m 528 276 l 528 385 l 1057 385 l 1057 574 l 528 574 l 528 683 l 1078 683 l 1078 972 l 69 972 l 69 0 l 1085 0 l 1085 276 z "},"Ì":{"ha":597,"x_min":0,"x_max":0,"o":"m 8 1244 l -14 1131 l 608 1040 l 625 1129 z m 69 972 l 69 0 l 528 0 l 528 972 z "},"Í":{"ha":597,"x_min":0,"x_max":0,"o":"m 603 1244 l -14 1129 l 3 1040 l 625 1131 z m 69 972 l 69 0 l 528 0 l 528 972 z "},"Î":{"ha":597,"x_min":0,"x_max":0,"o":"m -47 1132 l -6 1043 l 306 1157 l 617 1043 l 658 1132 l 333 1261 l 278 1261 z m 69 972 l 69 0 l 528 0 l 528 972 z "},"Ï":{"ha":597,"x_min":0,"x_max":0,"o":"m 138 1043 b 267 1142 218 1043 267 1081 b 138 1240 267 1203 218 1240 b 8 1142 57 1240 8 1203 b 138 1043 8 1081 57 1043 z m 472 1043 b 601 1142 553 1043 601 1081 b 472 1240 601 1203 553 1240 b 343 1142 392 1240 343 1203 b 472 1043 343 1081 392 1043 z m 69 972 l 69 0 l 528 0 l 528 972 z "},"Ñ":{"ha":1368,"x_min":0,"x_max":0,"o":"m 351 1053 l 471 1053 b 524 1125 471 1096 475 1125 b 882 1050 601 1125 761 1050 b 1032 1229 990 1050 1032 1110 l 910 1229 b 867 1157 910 1183 907 1157 b 499 1232 799 1157 617 1232 b 351 1053 393 1232 351 1172 z m 69 0 l 493 0 l 493 501 l 501 501 l 779 0 l 1299 0 l 1299 972 l 875 972 l 875 475 l 867 475 l 607 972 l 69 972 z "},"Ò":{"ha":1403,"x_min":0,"x_max":0,"o":"m 404 1244 l 382 1131 l 1004 1040 l 1021 1129 z m 701 -28 b 1354 483 1149 -28 1354 133 b 701 1000 1354 838 1149 1000 b 49 483 254 1000 49 838 b 701 -28 49 133 254 -28 z m 701 674 b 882 476 825 674 882 611 b 701 278 882 340 825 278 b 521 476 578 278 521 340 b 701 674 521 611 578 674 z "},"Ó":{"ha":1403,"x_min":0,"x_max":0,"o":"m 999 1244 l 382 1129 l 399 1040 l 1021 1131 z m 701 -28 b 1354 483 1149 -28 1354 133 b 701 1000 1354 838 1149 1000 b 49 483 254 1000 49 838 b 701 -28 49 133 254 -28 z m 701 674 b 882 476 825 674 882 611 b 701 278 882 340 825 278 b 521 476 578 278 521 340 b 701 674 521 611 578 674 z "},"Ô":{"ha":1403,"x_min":0,"x_max":0,"o":"m 349 1132 l 390 1043 l 701 1157 l 1013 1043 l 1054 1132 l 729 1261 l 674 1261 z m 701 -28 b 1354 483 1149 -28 1354 133 b 701 1000 1354 838 1149 1000 b 49 483 254 1000 49 838 b 701 -28 49 133 254 -28 z m 701 674 b 882 476 825 674 882 611 b 701 278 882 340 825 278 b 521 476 578 278 521 340 b 701 674 521 611 578 674 z "},"Õ":{"ha":1403,"x_min":0,"x_max":0,"o":"m 361 1053 l 481 1053 b 533 1125 481 1096 485 1125 b 892 1050 611 1125 771 1050 b 1042 1229 1000 1050 1042 1110 l 919 1229 b 876 1157 919 1183 917 1157 b 508 1232 808 1157 626 1232 b 361 1053 403 1232 361 1172 z m 701 -28 b 1354 483 1149 -28 1354 133 b 701 1000 1354 838 1149 1000 b 49 483 254 1000 49 838 b 701 -28 49 133 254 -28 z m 701 674 b 882 476 825 674 882 611 b 701 278 882 340 825 278 b 521 476 578 278 521 340 b 701 674 521 611 578 674 z "},"Ö":{"ha":1403,"x_min":0,"x_max":0,"o":"m 533 1043 b 663 1142 614 1043 663 1081 b 533 1240 663 1203 614 1240 b 404 1142 453 1240 404 1203 b 533 1043 404 1081 453 1043 z m 868 1043 b 997 1142 949 1043 997 1081 b 868 1240 997 1203 949 1240 b 739 1142 788 1240 739 1203 b 868 1043 739 1081 788 1043 z m 701 -28 b 1354 483 1149 -28 1354 133 b 701 1000 1354 838 1149 1000 b 49 483 254 1000 49 838 b 701 -28 49 133 254 -28 z m 701 674 b 882 476 825 674 882 611 b 701 278 882 340 825 278 b 521 476 578 278 521 340 b 701 674 521 611 578 674 z "},"Ø":{"ha":1403,"x_min":0,"x_max":0,"o":"m 1533 950 l 1472 1026 l 1222 851 b 701 1000 1115 953 944 1000 b 49 483 254 1000 49 838 b 176 124 49 326 90 207 l 0 1 l 63 -76 l 260 61 b 701 -28 365 1 511 -28 b 1354 483 1149 -28 1354 133 b 1283 776 1354 601 1331 699 z m 521 476 b 701 674 521 611 578 674 b 857 599 779 674 829 649 l 536 375 b 521 476 526 403 521 436 z m 882 476 b 701 278 882 340 825 278 b 600 299 661 278 626 285 l 882 496 z "},"Ù":{"ha":1286,"x_min":0,"x_max":0,"o":"m 344 1244 l 322 1131 l 944 1040 l 961 1129 z m 1231 972 l 772 972 l 772 404 b 643 288 772 303 715 288 b 514 404 571 288 514 303 l 514 972 l 56 972 l 56 388 b 643 -28 56 60 272 -28 b 1231 388 1014 -28 1231 60 z "},"Ú":{"ha":1286,"x_min":0,"x_max":0,"o":"m 939 1244 l 322 1129 l 339 1040 l 961 1131 z m 1231 972 l 772 972 l 772 404 b 643 288 772 303 715 288 b 514 404 571 288 514 303 l 514 972 l 56 972 l 56 388 b 643 -28 56 60 272 -28 b 1231 388 1014 -28 1231 60 z "},"Û":{"ha":1286,"x_min":0,"x_max":0,"o":"m 289 1132 l 331 1043 l 642 1157 l 953 1043 l 994 1132 l 669 1261 l 614 1261 z m 1231 972 l 772 972 l 772 404 b 643 288 772 303 715 288 b 514 404 571 288 514 303 l 514 972 l 56 972 l 56 388 b 643 -28 56 60 272 -28 b 1231 388 1014 -28 1231 60 z "},"Ü":{"ha":1286,"x_min":0,"x_max":0,"o":"m 474 1043 b 603 1142 554 1043 603 1081 b 474 1240 603 1203 554 1240 b 344 1142 393 1240 344 1203 b 474 1043 344 1081 393 1043 z m 808 1043 b 938 1142 889 1043 938 1081 b 808 1240 938 1203 889 1240 b 679 1142 728 1240 679 1203 b 808 1043 679 1081 728 1043 z m 1231 972 l 772 972 l 772 404 b 643 288 772 303 715 288 b 514 404 571 288 514 303 l 514 972 l 56 972 l 56 388 b 643 -28 56 60 272 -28 b 1231 388 1014 -28 1231 60 z "},"Ý":{"ha":1253,"x_min":0,"x_max":0,"o":"m 922 1244 l 306 1129 l 322 1040 l 944 1131 z m -28 972 l 396 292 l 396 0 l 854 0 l 854 292 l 1281 972 l 801 972 l 642 628 l 633 628 l 465 972 z "},"Þ":{"ha":1329,"x_min":0,"x_max":0,"o":"m 815 832 l 528 832 l 528 972 l 69 972 l 69 0 l 528 0 l 528 142 l 774 142 b 1294 486 1104 142 1294 189 b 815 832 1294 793 1085 832 z m 717 368 l 528 368 l 528 594 l 717 594 b 847 483 808 594 847 567 b 717 368 847 400 808 371 z "},"ß":{"ha":1444,"x_min":0,"x_max":0,"o":"m 1140 481 b 1383 714 1338 506 1383 604 b 774 1028 1383 974 1122 1028 b 83 588 264 1028 83 914 l 83 0 l 500 0 l 500 560 b 754 760 500 713 553 760 b 957 671 879 760 957 742 b 744 586 957 610 897 586 l 614 586 l 614 376 l 826 376 b 993 294 938 376 993 356 b 828 213 993 233 938 213 b 600 250 721 213 646 232 l 600 15 b 949 -28 679 -10 794 -28 b 1403 246 1269 -28 1403 50 b 1140 481 1403 385 1336 458 z "},"à":{"ha":1313,"x_min":0,"x_max":0,"o":"m 1028 996 l 411 1111 l 389 997 l 1011 907 z m 799 819 l 799 585 l 792 585 b 446 847 750 764 635 847 b 56 415 165 847 56 674 b 454 -28 56 78 229 -28 b 792 186 617 -28 738 28 l 799 186 l 799 0 l 1243 0 l 1243 819 z m 632 236 b 479 388 529 236 479 286 b 632 540 479 489 529 540 b 785 388 735 540 785 489 b 632 236 785 285 733 236 z "},"á":{"ha":1313,"x_min":0,"x_max":0,"o":"m 1029 997 l 1007 1111 l 390 996 l 407 907 z m 799 819 l 799 585 l 792 585 b 446 847 750 764 635 847 b 56 415 165 847 56 674 b 454 -28 56 78 229 -28 b 792 186 617 -28 738 28 l 799 186 l 799 0 l 1243 0 l 1243 819 z m 632 236 b 479 388 529 236 479 286 b 632 540 479 489 529 540 b 785 388 735 540 785 489 b 632 236 785 285 733 236 z "},"â":{"ha":1313,"x_min":0,"x_max":0,"o":"m 703 1007 l 1014 893 l 1056 982 l 731 1111 l 675 1111 l 350 982 l 392 893 z m 799 819 l 799 585 l 792 585 b 446 847 750 764 635 847 b 56 415 165 847 56 674 b 454 -28 56 78 229 -28 b 792 186 617 -28 738 28 l 799 186 l 799 0 l 1243 0 l 1243 819 z m 632 236 b 479 388 529 236 479 286 b 632 540 479 489 529 540 b 785 388 735 540 785 489 b 632 236 785 285 733 236 z "},"ã":{"ha":1313,"x_min":0,"x_max":0,"o":"m 521 982 b 879 907 599 982 758 907 b 1029 1086 988 907 1029 967 l 907 1086 b 864 1014 907 1040 904 1014 b 496 1089 796 1014 614 1089 b 349 910 390 1089 349 1029 l 468 910 b 521 982 468 953 472 982 z m 799 819 l 799 585 l 792 585 b 446 847 750 764 635 847 b 56 415 165 847 56 674 b 454 -28 56 78 229 -28 b 792 186 617 -28 738 28 l 799 186 l 799 0 l 1243 0 l 1243 819 z m 632 236 b 479 388 529 236 479 286 b 632 540 479 489 529 540 b 785 388 735 540 785 489 b 632 236 785 285 733 236 z "},"ä":{"ha":1313,"x_min":0,"x_max":0,"o":"m 543 910 b 672 1008 624 910 672 947 b 543 1107 672 1069 624 1107 b 414 1008 463 1107 414 1069 b 543 910 414 947 463 910 z m 878 910 b 1007 1008 958 910 1007 947 b 878 1107 1007 1069 958 1107 b 749 1008 797 1107 749 1069 b 878 910 749 947 797 910 z m 799 819 l 799 585 l 792 585 b 446 847 750 764 635 847 b 56 415 165 847 56 674 b 454 -28 56 78 229 -28 b 792 186 617 -28 738 28 l 799 186 l 799 0 l 1243 0 l 1243 819 z m 632 236 b 479 388 529 236 479 286 b 632 540 479 489 529 540 b 785 388 735 540 785 489 b 632 236 785 285 733 236 z "},"å":{"ha":1313,"x_min":0,"x_max":0,"o":"m 710 908 b 894 1022 836 908 894 944 b 710 1136 894 1100 836 1136 b 525 1022 583 1136 525 1100 b 710 908 525 944 583 908 z m 710 1071 b 785 1022 758 1071 785 1056 b 710 974 785 989 758 974 b 635 1022 661 974 635 989 b 710 1071 635 1056 661 1071 z m 799 819 l 799 585 l 792 585 b 446 847 750 764 635 847 b 56 415 165 847 56 674 b 454 -28 56 78 229 -28 b 792 186 617 -28 738 28 l 799 186 l 799 0 l 1243 0 l 1243 819 z m 632 236 b 479 388 529 236 479 286 b 632 540 479 489 529 540 b 785 388 735 540 785 489 b 632 236 785 285 733 236 z "},"æ":{"ha":1846,"x_min":0,"x_max":0,"o":"m 1804 431 b 1283 847 1804 726 1619 847 b 910 768 1131 847 1004 822 b 551 847 836 821 721 847 b 58 779 342 847 157 807 l 58 507 b 443 574 143 536 279 574 b 686 461 604 574 686 538 l 686 456 b 467 469 610 465 535 469 b 49 217 196 469 49 403 b 369 -28 49 36 189 -28 b 774 176 578 -28 699 56 b 1289 -28 849 44 1011 -28 b 1726 36 1456 -28 1606 -1 l 1726 272 b 1385 214 1685 257 1553 214 b 1138 324 1256 214 1169 239 l 1796 321 b 1804 431 1801 357 1804 396 z m 1290 592 b 1449 458 1388 592 1438 546 l 1126 456 b 1290 592 1139 539 1188 592 z m 501 192 b 388 260 428 192 388 217 b 543 335 388 294 414 335 b 685 322 585 335 635 331 b 501 192 672 253 617 192 z "},"ç":{"ha":1063,"x_min":0,"x_max":0,"o":"m 700 535 b 1014 488 776 535 889 524 l 1014 803 b 615 847 863 836 728 847 b 49 406 269 847 49 733 b 524 -25 49 101 239 -7 l 504 -89 l 486 -150 l 585 -150 b 638 -185 625 -150 638 -164 b 565 -221 638 -206 625 -221 b 438 -201 511 -221 463 -208 l 438 -304 b 586 -319 481 -314 531 -319 b 786 -190 731 -319 786 -282 b 631 -65 786 -85 713 -65 l 629 -65 l 644 -28 b 1007 31 804 -25 924 1 l 1007 310 b 715 254 951 288 850 254 b 479 397 532 254 479 317 b 700 535 479 490 549 535 z "},"è":{"ha":1174,"x_min":0,"x_max":0,"o":"m 903 996 l 286 1111 l 264 997 l 886 907 z m 1132 432 b 610 847 1132 726 946 847 b 49 404 260 847 49 718 b 617 -28 49 104 239 -28 b 1061 38 781 -28 942 -3 l 1061 274 b 708 213 1013 256 883 213 b 458 314 578 213 485 236 l 1124 311 b 1132 432 1129 356 1132 396 z m 618 592 b 779 450 721 592 772 544 l 451 447 b 618 592 458 544 514 592 z "},"é":{"ha":1174,"x_min":0,"x_max":0,"o":"m 904 997 l 882 1111 l 265 996 l 282 907 z m 1132 432 b 610 847 1132 726 946 847 b 49 404 260 847 49 718 b 617 -28 49 104 239 -28 b 1061 38 781 -28 942 -3 l 1061 274 b 708 213 1013 256 883 213 b 458 314 578 213 485 236 l 1124 311 b 1132 432 1129 356 1132 396 z m 618 592 b 779 450 721 592 772 544 l 451 447 b 618 592 458 544 514 592 z "},"ê":{"ha":1174,"x_min":0,"x_max":0,"o":"m 578 1007 l 889 893 l 931 982 l 606 1111 l 550 1111 l 225 982 l 267 893 z m 1132 432 b 610 847 1132 726 946 847 b 49 404 260 847 49 718 b 617 -28 49 104 239 -28 b 1061 38 781 -28 942 -3 l 1061 274 b 708 213 1013 256 883 213 b 458 314 578 213 485 236 l 1124 311 b 1132 432 1129 356 1132 396 z m 618 592 b 779 450 721 592 772 544 l 451 447 b 618 592 458 544 514 592 z "},"ë":{"ha":1174,"x_min":0,"x_max":0,"o":"m 418 910 b 547 1008 499 910 547 947 b 418 1107 547 1069 499 1107 b 289 1008 338 1107 289 1069 b 418 910 289 947 338 910 z m 753 910 b 882 1008 833 910 882 947 b 753 1107 882 1069 833 1107 b 624 1008 672 1107 624 1069 b 753 910 624 947 672 910 z m 1132 432 b 610 847 1132 726 946 847 b 49 404 260 847 49 718 b 617 -28 49 104 239 -28 b 1061 38 781 -28 942 -3 l 1061 274 b 708 213 1013 256 883 213 b 458 314 578 213 485 236 l 1124 311 b 1132 432 1129 356 1132 396 z m 618 592 b 779 450 721 592 772 544 l 451 447 b 618 592 458 544 514 592 z "},"ì":{"ha":583,"x_min":0,"x_max":0,"o":"m 69 819 l 69 0 l 514 0 l 514 819 z "},"í":{"ha":583,"x_min":0,"x_max":0,"o":"m 538 1111 l 1 994 l 21 907 l 563 997 z m 69 819 l 69 0 l 514 0 l 514 819 z "},"î":{"ha":611,"x_min":0,"x_max":0,"o":"m 0 972 l 47 890 l 293 1014 l 536 890 l 583 972 l 321 1111 l 265 1111 z m 69 819 l 69 0 l 514 0 l 514 819 z "},"ï":{"ha":583,"x_min":0,"x_max":0,"o":"m 124 910 b 253 1008 204 910 253 947 b 124 1107 253 1069 204 1107 b -6 1008 43 1107 -6 1069 b 124 910 -6 947 43 910 z m 458 910 b 588 1008 539 910 588 947 b 458 1107 588 1069 539 1107 b 329 1008 378 1107 329 1069 b 458 910 329 947 378 910 z m 69 819 l 69 0 l 514 0 l 514 819 z "},"ð":{"ha":1257,"x_min":0,"x_max":0,"o":"m 979 874 l 1140 901 l 1114 982 l 885 924 b 353 1017 747 986 567 1017 l 271 899 b 603 868 389 910 508 900 l 282 828 l 306 746 l 672 817 b 793 603 736 776 793 707 l 789 601 b 478 718 739 681 639 718 b 42 358 222 718 42 617 b 622 -28 42 57 279 -28 b 1201 440 1042 -28 1201 114 b 979 874 1201 635 1122 778 z m 621 231 b 465 393 515 231 465 281 b 622 556 465 504 515 556 b 778 393 728 556 778 504 b 621 231 778 279 726 231 z "},"ñ":{"ha":1271,"x_min":0,"x_max":0,"o":"m 454 982 b 813 907 532 982 692 907 b 963 1086 921 907 963 967 l 840 1086 b 797 1014 840 1040 838 1014 b 429 1089 729 1014 547 1089 b 282 910 324 1089 282 1029 l 401 910 b 454 982 401 953 406 982 z m 854 847 b 499 576 619 847 538 747 l 492 576 l 492 819 l 69 819 l 69 0 l 514 0 l 514 396 b 639 521 514 483 558 521 b 764 389 722 521 764 481 l 764 0 l 1208 0 l 1208 515 b 854 847 1208 751 1085 847 z "},"ò":{"ha":1267,"x_min":0,"x_max":0,"o":"m 335 1111 l 313 997 l 935 907 l 951 996 z m 633 -28 b 1218 404 1036 -28 1218 104 b 633 847 1218 706 1033 847 b 49 404 233 847 49 706 b 633 -28 49 104 231 -28 z m 633 556 b 794 393 744 556 794 504 b 633 231 794 282 744 231 b 472 393 522 231 472 282 b 633 556 472 504 522 556 z "},"ó":{"ha":1267,"x_min":0,"x_max":0,"o":"m 931 1111 l 314 996 l 331 907 l 953 997 z m 633 -28 b 1218 404 1036 -28 1218 104 b 633 847 1218 706 1033 847 b 49 404 233 847 49 706 b 633 -28 49 104 231 -28 z m 633 556 b 794 393 744 556 794 504 b 633 231 794 282 744 231 b 472 393 522 231 472 282 b 633 556 472 504 522 556 z "},"ô":{"ha":1267,"x_min":0,"x_max":0,"o":"m 274 982 l 315 893 l 626 1007 l 938 893 l 979 982 l 654 1111 l 599 1111 z m 633 -28 b 1218 404 1036 -28 1218 104 b 633 847 1218 706 1033 847 b 49 404 233 847 49 706 b 633 -28 49 104 231 -28 z m 633 556 b 794 393 744 556 794 504 b 633 231 794 282 744 231 b 472 393 522 231 472 282 b 633 556 472 504 522 556 z "},"õ":{"ha":1267,"x_min":0,"x_max":0,"o":"m 272 910 l 392 910 b 444 982 392 953 396 982 b 803 907 522 982 682 907 b 953 1086 911 907 953 967 l 831 1086 b 788 1014 831 1040 828 1014 b 419 1089 719 1014 538 1089 b 272 910 314 1089 272 1029 z m 633 -28 b 1218 404 1036 -28 1218 104 b 633 847 1218 706 1033 847 b 49 404 233 847 49 706 b 633 -28 49 104 231 -28 z m 633 556 b 794 393 744 556 794 504 b 633 231 794 282 744 231 b 472 393 522 231 472 282 b 633 556 472 504 522 556 z "},"ö":{"ha":1267,"x_min":0,"x_max":0,"o":"m 467 910 b 596 1008 547 910 596 947 b 467 1107 596 1069 547 1107 b 338 1008 386 1107 338 1069 b 467 910 338 947 386 910 z m 801 910 b 931 1008 882 910 931 947 b 801 1107 931 1069 882 1107 b 672 1008 721 1107 672 1069 b 801 910 672 947 721 910 z m 633 -28 b 1218 404 1036 -28 1218 104 b 633 847 1218 706 1033 847 b 49 404 233 847 49 706 b 633 -28 49 104 231 -28 z m 633 556 b 794 393 744 556 794 504 b 633 231 794 282 744 231 b 472 393 522 231 472 282 b 633 556 472 504 522 556 z "},"ø":{"ha":1281,"x_min":0,"x_max":0,"o":"m 1246 758 l 1192 838 l 1064 747 b 633 847 967 815 825 847 b 49 404 233 847 49 706 b 150 110 49 276 82 179 l 53 42 l 107 -36 l 231 50 b 633 -28 325 -3 458 -28 b 1218 404 1036 -28 1218 104 b 1135 681 1218 519 1192 611 z m 472 393 b 633 556 472 504 522 556 b 744 525 682 556 719 546 l 478 339 b 472 393 474 354 472 372 z m 794 393 b 633 231 794 282 744 231 b 526 257 588 231 553 239 l 790 440 b 794 393 793 426 794 411 z "},"ù":{"ha":1257,"x_min":0,"x_max":0,"o":"m 942 996 l 325 1111 l 303 997 l 925 907 z m 743 819 l 743 396 b 625 271 743 308 699 271 b 507 403 549 271 507 311 l 507 819 l 63 819 l 63 304 b 410 -28 63 68 190 -28 b 758 215 644 -28 714 79 l 765 215 l 765 0 l 1188 0 l 1188 819 z "},"ú":{"ha":1257,"x_min":0,"x_max":0,"o":"m 943 997 l 921 1111 l 304 996 l 321 907 z m 743 819 l 743 396 b 625 271 743 308 699 271 b 507 403 549 271 507 311 l 507 819 l 63 819 l 63 304 b 410 -28 63 68 190 -28 b 758 215 644 -28 714 79 l 765 215 l 765 0 l 1188 0 l 1188 819 z "},"û":{"ha":1257,"x_min":0,"x_max":0,"o":"m 617 1007 l 928 893 l 969 982 l 644 1111 l 589 1111 l 264 982 l 306 893 z m 743 819 l 743 396 b 625 271 743 308 699 271 b 507 403 549 271 507 311 l 507 819 l 63 819 l 63 304 b 410 -28 63 68 190 -28 b 758 215 644 -28 714 79 l 765 215 l 765 0 l 1188 0 l 1188 819 z "},"ü":{"ha":1257,"x_min":0,"x_max":0,"o":"m 457 910 b 586 1008 538 910 586 947 b 457 1107 586 1069 538 1107 b 328 1008 376 1107 328 1069 b 457 910 328 947 376 910 z m 792 910 b 921 1008 872 910 921 947 b 792 1107 921 1069 872 1107 b 663 1008 711 1107 663 1069 b 792 910 663 947 711 910 z m 743 819 l 743 396 b 625 271 743 308 699 271 b 507 403 549 271 507 311 l 507 819 l 63 819 l 63 304 b 410 -28 63 68 190 -28 b 758 215 644 -28 714 79 l 765 215 l 765 0 l 1188 0 l 1188 819 z "},"ý":{"ha":1217,"x_min":0,"x_max":0,"o":"m 890 1111 l 274 996 l 290 907 l 913 997 z m 0 819 l 293 68 l 611 68 l 610 61 b 390 -39 601 19 560 -39 b 111 14 268 -39 167 -8 l 111 -274 b 464 -319 196 -299 325 -319 b 974 74 849 -319 904 -140 l 1217 819 l 765 819 l 635 242 l 626 242 l 458 819 z "},"þ":{"ha":1340,"x_min":0,"x_max":0,"o":"m 896 847 b 542 585 706 847 583 771 l 535 585 l 535 1028 l 90 1028 l 90 -292 l 535 -292 l 535 186 l 542 186 b 886 -28 597 28 722 -28 b 1285 415 1111 -28 1285 78 b 896 847 1285 681 1176 847 z m 704 236 b 549 389 600 236 549 286 b 706 540 549 490 599 540 b 861 389 811 540 861 490 b 704 236 861 288 811 236 z "},"ÿ":{"ha":1217,"x_min":0,"x_max":0,"o":"m 426 910 b 556 1008 507 910 556 947 b 426 1107 556 1069 507 1107 b 297 1008 346 1107 297 1069 b 426 910 297 947 346 910 z m 761 910 b 890 1008 842 910 890 947 b 761 1107 890 1069 842 1107 b 632 1008 681 1107 632 1069 b 761 910 632 947 681 910 z m 0 819 l 293 68 l 611 68 l 610 61 b 390 -39 601 19 560 -39 b 111 14 268 -39 167 -8 l 111 -274 b 464 -319 196 -299 325 -319 b 974 74 849 -319 904 -140 l 1217 819 l 765 819 l 635 242 l 626 242 l 458 819 z "},"Ā":{"ha":1367,"x_min":0,"x_max":0,"o":"m 1001 1176 l 365 1176 l 365 1074 l 1001 1074 z m 908 0 l 1367 0 l 1058 972 l 308 972 l 0 0 l 444 0 l 496 169 l 860 169 z m 568 413 l 675 767 l 688 767 l 789 413 z "},"ā":{"ha":1313,"x_min":0,"x_max":0,"o":"m 1028 1038 l 392 1038 l 392 935 l 1028 935 z m 799 819 l 799 585 l 792 585 b 446 847 750 764 635 847 b 56 415 165 847 56 674 b 454 -28 56 78 229 -28 b 792 186 617 -28 738 28 l 799 186 l 799 0 l 1243 0 l 1243 819 z m 632 236 b 479 388 529 236 479 286 b 632 540 479 489 529 540 b 785 388 735 540 785 489 b 632 236 785 285 733 236 z "},"Ă":{"ha":1367,"x_min":0,"x_max":0,"o":"m 683 1040 b 986 1254 900 1040 986 1089 l 871 1254 b 683 1140 871 1171 822 1140 b 496 1254 544 1140 496 1171 l 381 1254 b 683 1040 381 1089 467 1040 z m 908 0 l 1367 0 l 1058 972 l 308 972 l 0 0 l 444 0 l 496 169 l 860 169 z m 568 413 l 675 767 l 688 767 l 789 413 z "},"ă":{"ha":1313,"x_min":0,"x_max":0,"o":"m 710 897 b 1013 1111 926 897 1013 946 l 897 1111 b 710 997 897 1028 849 997 b 522 1111 571 997 522 1028 l 407 1111 b 710 897 407 946 493 897 z m 799 819 l 799 585 l 792 585 b 446 847 750 764 635 847 b 56 415 165 847 56 674 b 454 -28 56 78 229 -28 b 792 186 617 -28 738 28 l 799 186 l 799 0 l 1243 0 l 1243 819 z m 632 236 b 479 388 529 236 479 286 b 632 540 479 489 529 540 b 785 388 735 540 785 489 b 632 236 785 285 733 236 z "},"Ą":{"ha":1367,"x_min":0,"x_max":0,"o":"m 954 -111 b 1046 0 954 -71 996 -26 l 1367 0 l 1058 972 l 308 972 l 0 0 l 444 0 l 496 169 l 860 169 l 908 3 b 804 -150 869 -19 804 -71 b 978 -278 804 -226 865 -278 b 1083 -264 1010 -278 1046 -274 l 1083 -154 b 1028 -161 1065 -158 1046 -161 b 954 -111 983 -161 954 -144 z m 568 413 l 675 767 l 688 767 l 789 413 z "},"ą":{"ha":1313,"x_min":0,"x_max":0,"o":"m 936 0 l 1243 0 l 1243 819 l 799 819 l 799 585 l 792 585 b 446 847 750 764 635 847 b 56 415 165 847 56 674 b 454 -28 56 78 229 -28 b 792 186 617 -28 738 28 l 799 186 l 799 3 b 694 -150 761 -19 694 -71 b 868 -278 694 -226 756 -278 b 974 -264 900 -278 936 -274 l 974 -154 b 918 -161 956 -158 936 -161 b 844 -111 874 -161 844 -144 b 936 0 844 -71 886 -26 z m 632 236 b 479 388 529 236 479 286 b 632 540 479 489 529 540 b 785 388 735 540 785 489 b 632 236 785 285 733 236 z "},"Ć":{"ha":1211,"x_min":0,"x_max":0,"o":"m 958 1244 l 342 1129 l 358 1040 l 981 1131 z m 1149 32 l 1149 369 b 810 314 1088 346 979 314 b 500 481 568 314 500 378 b 788 644 500 594 583 644 b 1163 593 889 644 1031 632 l 1163 946 b 694 1000 990 985 825 1000 b 49 479 306 1000 49 867 b 692 -28 49 79 324 -28 b 1149 32 860 -28 1018 -6 z "},"ć":{"ha":1063,"x_min":0,"x_max":0,"o":"m 886 1111 l 269 996 l 286 907 l 908 997 z m 1007 31 l 1007 310 b 715 254 951 288 850 254 b 479 397 532 254 479 317 b 700 535 479 490 549 535 b 1014 488 776 535 889 524 l 1014 803 b 615 847 863 836 728 847 b 49 406 269 847 49 733 b 615 -28 49 69 281 -28 b 1007 31 790 -28 918 0 z "},"Ċ":{"ha":1211,"x_min":0,"x_max":0,"o":"m 647 1043 b 776 1142 728 1043 776 1081 b 647 1240 776 1203 728 1240 b 518 1142 567 1240 518 1203 b 647 1043 518 1081 567 1043 z m 1149 32 l 1149 369 b 810 314 1088 346 979 314 b 500 481 568 314 500 378 b 788 644 500 594 583 644 b 1163 593 889 644 1031 632 l 1163 946 b 694 1000 990 985 825 1000 b 49 479 306 1000 49 867 b 692 -28 49 79 324 -28 b 1149 32 860 -28 1018 -6 z "},"ċ":{"ha":1069,"x_min":0,"x_max":0,"o":"m 574 903 b 710 1007 658 903 710 943 b 574 1111 710 1071 658 1111 b 438 1007 489 1111 438 1071 b 574 903 438 943 489 903 z m 1007 31 l 1007 310 b 715 254 951 288 850 254 b 479 397 532 254 479 317 b 700 535 479 490 549 535 b 1014 488 776 535 889 524 l 1014 803 b 615 847 863 836 728 847 b 49 406 269 847 49 733 b 615 -28 49 69 281 -28 b 1007 31 790 -28 918 0 z "},"Č":{"ha":1211,"x_min":0,"x_max":0,"o":"m 308 1172 l 633 1043 l 689 1043 l 1014 1172 l 972 1261 l 661 1147 l 350 1261 z m 1149 32 l 1149 369 b 810 314 1088 346 979 314 b 500 481 568 314 500 378 b 788 644 500 594 583 644 b 1163 593 889 644 1031 632 l 1163 946 b 694 1000 990 985 825 1000 b 49 479 306 1000 49 867 b 692 -28 49 79 324 -28 b 1149 32 860 -28 1018 -6 z "},"č":{"ha":1063,"x_min":0,"x_max":0,"o":"m 236 1036 l 561 907 l 617 907 l 942 1036 l 900 1125 l 589 1011 l 278 1125 z m 1007 31 l 1007 310 b 715 254 951 288 850 254 b 479 397 532 254 479 317 b 700 535 479 490 549 535 b 1014 488 776 535 889 524 l 1014 803 b 615 847 863 836 728 847 b 49 406 269 847 49 733 b 615 -28 49 69 281 -28 b 1007 31 790 -28 918 0 z "},"Ď":{"ha":1326,"x_min":0,"x_max":0,"o":"m 583 1043 l 639 1043 l 964 1172 l 922 1261 l 611 1147 l 300 1261 l 258 1172 z m 722 972 l 69 972 l 69 0 l 718 0 b 1278 492 1078 3 1278 129 b 722 972 1278 844 1089 972 z m 644 278 l 521 278 l 521 674 l 644 674 b 819 476 785 674 819 603 b 644 278 819 326 771 281 z "},"ď":{"ha":1319,"x_min":0,"x_max":0,"o":"m 806 585 l 799 585 b 446 847 757 771 636 847 b 56 415 165 847 56 681 b 454 -28 56 78 229 -28 b 799 186 618 -28 743 28 l 806 186 l 806 0 l 1250 0 l 1250 1028 l 806 1028 z m 1321 1028 l 1293 792 l 1442 792 l 1501 1028 z m 635 236 b 479 388 529 236 479 286 b 636 540 479 489 529 540 b 792 388 742 540 792 489 b 635 236 792 285 740 236 z "},"Đ":{"ha":1454,"x_min":0,"x_max":0,"o":"m 850 972 l 197 972 l 197 532 l 69 532 l 69 447 l 197 447 l 197 0 l 846 0 b 1406 492 1206 3 1406 129 b 850 972 1406 844 1217 972 z m 772 278 l 649 278 l 649 447 l 833 447 l 833 532 l 649 532 l 649 674 l 772 674 b 947 476 913 674 947 603 b 772 278 947 326 899 281 z "},"đ":{"ha":1447,"x_min":0,"x_max":0,"o":"m 1378 965 l 1243 965 l 1243 1028 l 799 1028 l 799 965 l 614 965 l 614 881 l 799 881 l 799 585 l 792 585 b 439 847 750 771 629 847 b 49 415 158 847 49 681 b 447 -28 49 78 222 -28 b 792 186 611 -28 736 28 l 799 186 l 799 0 l 1243 0 l 1243 881 l 1378 881 z m 628 236 b 472 388 522 236 472 286 b 629 540 472 489 522 540 b 785 388 735 540 785 489 b 628 236 785 285 733 236 z "},"Ē":{"ha":1140,"x_min":0,"x_max":0,"o":"m 892 1176 l 256 1176 l 256 1074 l 892 1074 z m 528 276 l 528 385 l 1057 385 l 1057 574 l 528 574 l 528 683 l 1078 683 l 1078 972 l 69 972 l 69 0 l 1085 0 l 1085 276 z "},"ē":{"ha":1174,"x_min":0,"x_max":0,"o":"m 903 1038 l 267 1038 l 267 935 l 903 935 z m 1132 432 b 610 847 1132 726 946 847 b 49 404 260 847 49 718 b 617 -28 49 104 239 -28 b 1061 38 781 -28 942 -3 l 1061 274 b 708 213 1013 256 883 213 b 458 314 578 213 485 236 l 1124 311 b 1132 432 1129 356 1132 396 z m 618 592 b 779 450 721 592 772 544 l 451 447 b 618 592 458 544 514 592 z "},"Ė":{"ha":1140,"x_min":0,"x_max":0,"o":"m 560 1043 b 689 1142 640 1043 689 1081 b 560 1240 689 1203 640 1240 b 431 1142 479 1240 431 1203 b 560 1043 431 1081 479 1043 z m 528 276 l 528 385 l 1057 385 l 1057 574 l 528 574 l 528 683 l 1078 683 l 1078 972 l 69 972 l 69 0 l 1085 0 l 1085 276 z "},"ė":{"ha":1188,"x_min":0,"x_max":0,"o":"m 610 893 b 746 997 694 893 746 933 b 610 1101 746 1061 694 1101 b 474 997 525 1101 474 1061 b 610 893 474 933 525 893 z m 1132 432 b 610 847 1132 726 946 847 b 49 404 260 847 49 718 b 617 -28 49 104 239 -28 b 1061 38 781 -28 942 -3 l 1061 274 b 708 213 1013 256 883 213 b 458 314 578 213 485 236 l 1124 311 b 1132 432 1129 356 1132 396 z m 618 592 b 779 450 721 592 772 544 l 451 447 b 618 592 458 544 514 592 z "},"Ę":{"ha":1140,"x_min":0,"x_max":0,"o":"m 1067 -161 b 993 -111 1022 -161 993 -144 b 1085 0 993 -71 1035 -26 l 1085 276 l 528 276 l 528 385 l 1057 385 l 1057 574 l 528 574 l 528 683 l 1078 683 l 1078 972 l 69 972 l 69 0 l 943 0 b 843 -150 904 -24 843 -74 b 1017 -278 843 -226 904 -278 b 1122 -264 1049 -278 1085 -274 l 1122 -154 b 1067 -161 1104 -158 1085 -161 z "},"ę":{"ha":1174,"x_min":0,"x_max":0,"o":"m 1132 432 b 610 847 1132 726 946 847 b 49 404 260 847 49 718 b 617 -28 49 104 239 -28 b 742 -24 658 -28 700 -26 b 674 -150 708 -51 674 -93 b 847 -278 674 -226 735 -278 b 953 -264 879 -278 915 -274 l 953 -154 b 897 -161 935 -158 915 -161 b 824 -111 853 -161 824 -144 b 915 0 824 -71 865 -26 b 1061 38 968 10 1018 22 l 1061 274 b 708 213 1013 256 883 213 b 458 314 578 213 485 236 l 1124 311 b 1132 432 1129 356 1132 396 z m 618 592 b 779 450 721 592 772 544 l 451 447 b 618 592 458 544 514 592 z "},"Ě":{"ha":1140,"x_min":0,"x_max":0,"o":"m 546 1043 l 601 1043 l 926 1172 l 885 1261 l 574 1147 l 263 1261 l 221 1172 z m 528 276 l 528 385 l 1057 385 l 1057 574 l 528 574 l 528 683 l 1078 683 l 1078 972 l 69 972 l 69 0 l 1085 0 l 1085 276 z "},"ě":{"ha":1174,"x_min":0,"x_max":0,"o":"m 557 907 l 613 907 l 938 1036 l 896 1125 l 585 1011 l 274 1125 l 232 1036 z m 1132 432 b 610 847 1132 726 946 847 b 49 404 260 847 49 718 b 617 -28 49 104 239 -28 b 1061 38 781 -28 942 -3 l 1061 274 b 708 213 1013 256 883 213 b 458 314 578 213 485 236 l 1124 311 b 1132 432 1129 356 1132 396 z m 618 592 b 779 450 721 592 772 544 l 451 447 b 618 592 458 544 514 592 z "},"Ğ":{"ha":1315,"x_min":0,"x_max":0,"o":"m 725 1040 b 1028 1254 942 1040 1028 1089 l 913 1254 b 725 1140 913 1171 864 1140 b 538 1254 586 1140 538 1171 l 422 1254 b 725 1040 422 1089 508 1040 z m 838 676 b 1260 624 947 676 1110 663 l 1260 940 b 743 1000 1092 982 899 1000 b 49 471 293 1000 49 846 b 706 -28 49 122 257 -28 b 1246 57 958 -28 1147 19 l 1246 499 l 836 499 l 836 272 b 733 264 804 267 769 264 b 507 463 561 264 507 333 b 838 676 507 581 551 676 z "},"ğ":{"ha":1311,"x_min":0,"x_max":0,"o":"m 685 897 b 988 1111 901 897 988 946 l 872 1111 b 685 997 872 1028 824 997 b 497 1111 546 997 497 1028 l 382 1111 b 685 897 382 946 468 897 z m 799 819 l 799 613 l 792 613 b 447 847 750 771 642 847 b 56 446 158 847 56 676 b 456 51 56 151 225 51 b 792 233 624 51 739 104 l 799 233 l 799 101 b 553 -46 799 11 754 -46 b 160 38 360 -46 225 6 l 160 -258 b 650 -319 257 -285 422 -319 b 1242 67 1082 -319 1242 -194 l 1242 819 z m 631 285 b 479 428 526 285 479 331 b 631 571 479 525 526 571 b 785 428 736 571 785 525 b 631 285 785 331 736 285 z "},"Ġ":{"ha":1315,"x_min":0,"x_max":0,"o":"m 711 1043 b 840 1142 792 1043 840 1081 b 711 1240 840 1203 792 1240 b 582 1142 631 1240 582 1203 b 711 1043 582 1081 631 1043 z m 838 676 b 1260 624 947 676 1110 663 l 1260 940 b 743 1000 1092 982 899 1000 b 49 471 293 1000 49 846 b 706 -28 49 122 257 -28 b 1246 57 958 -28 1147 19 l 1246 499 l 836 499 l 836 272 b 733 264 804 267 769 264 b 507 463 561 264 507 333 b 838 676 507 581 551 676 z "},"ġ":{"ha":1325,"x_min":0,"x_max":0,"o":"m 686 893 b 822 997 771 893 822 933 b 686 1101 822 1061 771 1101 b 550 997 601 1101 550 1061 b 686 893 550 933 601 893 z m 799 819 l 799 613 l 792 613 b 447 847 750 771 642 847 b 56 446 158 847 56 676 b 456 51 56 151 225 51 b 792 233 624 51 739 104 l 799 233 l 799 101 b 553 -46 799 11 754 -46 b 160 38 360 -46 225 6 l 160 -258 b 650 -319 257 -285 422 -319 b 1242 67 1082 -319 1242 -194 l 1242 819 z m 631 285 b 479 428 526 285 479 331 b 631 571 479 525 526 571 b 785 428 736 571 785 525 b 631 285 785 331 736 285 z "},"Ģ":{"ha":1315,"x_min":0,"x_max":0,"o":"m 838 676 b 1260 624 947 676 1110 663 l 1260 940 b 743 1000 1092 982 899 1000 b 49 471 293 1000 49 846 b 706 -28 49 122 257 -28 b 1246 57 958 -28 1147 19 l 1246 499 l 836 499 l 836 272 b 733 264 804 267 769 264 b 507 463 561 264 507 333 b 838 676 507 581 551 676 z m 706 -67 b 586 -162 625 -67 586 -103 b 693 -250 586 -217 618 -250 b 758 -239 722 -250 743 -246 l 758 -246 b 685 -289 756 -282 718 -289 b 604 -271 638 -289 613 -275 l 604 -337 b 686 -347 633 -344 661 -347 b 835 -208 817 -347 835 -272 b 706 -67 835 -111 794 -67 z "},"ģ":{"ha":1311,"x_min":0,"x_max":0,"o":"m 689 896 b 808 992 769 896 808 932 b 701 1079 808 1046 776 1079 b 636 1068 672 1079 651 1075 l 636 1075 b 710 1118 639 1111 676 1118 b 790 1100 757 1118 782 1104 l 790 1167 b 708 1176 761 1174 733 1176 b 560 1038 578 1176 560 1101 b 689 896 560 940 600 896 z m 799 819 l 799 613 l 792 613 b 447 847 750 771 642 847 b 56 446 158 847 56 676 b 456 51 56 151 225 51 b 792 233 624 51 739 104 l 799 233 l 799 101 b 553 -46 799 11 754 -46 b 160 38 360 -46 225 6 l 160 -258 b 650 -319 257 -285 422 -319 b 1242 67 1082 -319 1242 -194 l 1242 819 z m 631 285 b 479 428 526 285 479 331 b 631 571 479 525 526 571 b 785 428 736 571 785 525 b 631 285 785 331 736 285 z "},"Ħ":{"ha":1361,"x_min":0,"x_max":0,"o":"m 1424 847 l 1292 847 l 1292 972 l 833 972 l 833 847 l 528 847 l 528 972 l 69 972 l 69 847 l -62 847 l -62 750 l 69 750 l 69 0 l 528 0 l 528 278 l 833 278 l 833 0 l 1292 0 l 1292 750 l 1424 750 z m 833 590 l 528 590 l 528 750 l 833 750 z "},"ħ":{"ha":1260,"x_min":0,"x_max":0,"o":"m 854 847 b 507 576 632 847 542 749 l 500 576 l 500 881 l 699 881 l 699 965 l 500 965 l 500 1028 l 69 1028 l 69 965 l -65 965 l -65 881 l 69 881 l 69 0 l 514 0 l 514 396 b 633 521 514 483 558 521 b 753 389 711 521 753 481 l 753 0 l 1197 0 l 1197 515 b 854 847 1197 751 1072 847 z "},"Ĩ":{"ha":597,"x_min":0,"x_max":0,"o":"m -35 1053 l 85 1053 b 138 1125 85 1096 89 1125 b 496 1050 215 1125 375 1050 b 646 1229 604 1050 646 1110 l 524 1229 b 481 1157 524 1183 521 1157 b 113 1232 413 1157 231 1232 b -35 1053 7 1232 -35 1172 z m 69 972 l 69 0 l 528 0 l 528 972 z "},"ĩ":{"ha":611,"x_min":0,"x_max":0,"o":"m 14 910 l 128 910 b 186 974 128 942 138 974 b 429 907 257 974 322 907 b 572 1086 531 907 572 967 l 456 1086 b 404 1019 456 1049 447 1019 b 153 1089 338 1019 257 1089 b 14 910 56 1089 14 1029 z m 69 819 l 69 0 l 514 0 l 514 819 z "},"Ī":{"ha":597,"x_min":0,"x_max":0,"o":"m -12 1176 l -12 1074 l 624 1074 l 624 1176 z m 69 972 l 69 0 l 528 0 l 528 972 z "},"ī":{"ha":611,"x_min":0,"x_max":0,"o":"m 24 1039 l 24 936 l 560 936 l 560 1039 z m 69 819 l 69 0 l 514 0 l 514 819 z "},"Į":{"ha":597,"x_min":0,"x_max":0,"o":"m 510 -161 b 436 -111 465 -161 436 -144 b 528 0 436 -71 478 -26 l 528 972 l 69 972 l 69 0 l 386 0 b 286 -150 347 -24 286 -74 b 460 -278 286 -226 347 -278 b 565 -264 492 -278 528 -274 l 565 -154 b 510 -161 547 -158 528 -161 z "},"į":{"ha":583,"x_min":0,"x_max":0,"o":"m 542 1000 b 292 1111 542 1082 485 1111 b 42 1000 99 1111 42 1082 b 292 889 42 918 99 889 b 542 1000 485 889 542 918 z m 496 -161 b 422 -111 451 -161 422 -144 b 514 0 422 -71 464 -26 l 514 819 l 69 819 l 69 0 l 372 0 b 272 -150 333 -24 272 -74 b 446 -278 272 -226 333 -278 b 551 -264 478 -278 514 -274 l 551 -154 b 496 -161 533 -158 514 -161 z "},"İ":{"ha":597,"x_min":0,"x_max":0,"o":"m 292 1043 b 421 1142 372 1043 421 1081 b 292 1240 421 1203 372 1240 b 163 1142 211 1240 163 1203 b 292 1043 163 1081 211 1043 z m 69 972 l 69 0 l 528 0 l 528 972 z "},"ı":{"ha":583,"x_min":0,"x_max":0,"o":"m 69 819 l 69 0 l 514 0 l 514 819 z "},"Ĳ":{"ha":1483,"x_min":0,"x_max":0,"o":"m 69 972 l 69 0 l 528 0 l 528 972 z m 625 332 l 625 22 b 1004 -28 707 -4 844 -28 b 1428 292 1271 -28 1428 39 l 1428 972 l 969 972 l 969 415 b 815 296 969 318 903 296 b 625 332 728 296 660 318 z "},"ĳ":{"ha":1208,"x_min":0,"x_max":0,"o":"m 903 894 b 1153 1006 1096 894 1153 924 b 903 1117 1153 1088 1096 1117 b 653 1006 710 1117 653 1088 b 903 894 653 924 710 894 z m 292 889 b 542 1000 485 889 542 918 b 292 1111 542 1082 485 1111 b 42 1000 99 1111 42 1082 b 292 889 42 918 99 889 z m 1119 -25 l 1119 825 l 682 825 l 682 44 b 578 -44 682 -21 640 -44 b 481 -29 544 -44 510 -37 l 481 -289 b 744 -314 572 -308 675 -314 b 1119 -25 1031 -314 1119 -221 z m 69 819 l 69 0 l 514 0 l 514 819 z "},"Ķ":{"ha":1353,"x_min":0,"x_max":0,"o":"m 972 457 l 1346 972 l 846 972 l 536 493 l 528 493 l 528 972 l 69 972 l 69 -3 l 528 -3 l 528 432 l 536 432 l 832 -3 l 1353 0 z m 615 -67 b 496 -162 535 -67 496 -103 b 603 -250 496 -217 528 -250 b 668 -239 632 -250 653 -246 l 668 -246 b 594 -289 665 -282 628 -289 b 514 -271 547 -289 522 -275 l 514 -337 b 596 -347 543 -344 571 -347 b 744 -208 726 -347 744 -272 b 615 -67 744 -111 704 -67 z "},"ķ":{"ha":1246,"x_min":0,"x_max":0,"o":"m 514 374 l 517 374 l 739 -3 l 1246 0 l 919 390 l 1232 819 l 760 819 l 517 424 l 514 424 l 514 1028 l 69 1028 l 69 -3 l 514 -3 z m 611 -67 b 492 -162 531 -67 492 -103 b 599 -250 492 -217 524 -250 b 664 -239 628 -250 649 -246 l 664 -246 b 590 -289 661 -282 624 -289 b 510 -271 543 -289 518 -275 l 510 -337 b 592 -347 539 -344 567 -347 b 740 -208 722 -347 740 -272 b 611 -67 740 -111 700 -67 z "},"ĸ":{"ha":1253,"x_min":0,"x_max":0,"o":"m 919 390 l 1232 819 l 774 819 l 517 424 l 514 424 l 514 819 l 69 819 l 69 -3 l 514 -3 l 514 374 l 517 374 l 753 -3 l 1246 0 z "},"Ĺ":{"ha":1090,"x_min":0,"x_max":0,"o":"m 586 1244 l -31 1129 l -14 1040 l 608 1131 z m 528 333 l 528 972 l 69 972 l 69 0 l 1042 0 l 1042 333 z "},"ĺ":{"ha":611,"x_min":0,"x_max":0,"o":"m 533 1303 l -3 1186 l 17 1099 l 558 1189 z m 69 0 l 514 0 l 514 1028 l 69 1028 z "},"Ļ":{"ha":1090,"x_min":0,"x_max":0,"o":"m 528 333 l 528 972 l 69 972 l 69 0 l 1042 0 l 1042 333 z m 531 -67 b 411 -162 450 -67 411 -103 b 518 -250 411 -217 443 -250 b 583 -239 547 -250 568 -246 l 583 -246 b 510 -289 581 -282 543 -289 b 429 -271 463 -289 438 -275 l 429 -337 b 511 -347 458 -344 486 -347 b 660 -208 642 -347 660 -272 b 531 -67 660 -111 619 -67 z "},"ļ":{"ha":583,"x_min":0,"x_max":0,"o":"m 69 1028 l 69 0 l 514 0 l 514 1028 z m 288 -67 b 168 -162 207 -67 168 -103 b 275 -250 168 -217 200 -250 b 340 -239 304 -250 325 -246 l 340 -246 b 267 -289 338 -282 300 -289 b 186 -271 219 -289 194 -275 l 186 -337 b 268 -347 215 -344 243 -347 b 417 -208 399 -347 417 -272 b 288 -67 417 -111 376 -67 z "},"Ľ":{"ha":1090,"x_min":0,"x_max":0,"o":"m 793 1181 l 613 1181 l 585 944 l 733 944 z m 528 333 l 528 972 l 69 972 l 69 0 l 1042 0 l 1042 333 z "},"ľ":{"ha":583,"x_min":0,"x_max":0,"o":"m 69 0 l 514 0 l 514 1028 l 69 1028 z m 583 1028 l 556 792 l 704 792 l 764 1028 z "},"Ŀ":{"ha":1146,"x_min":0,"x_max":0,"o":"m 528 972 l 69 972 l 69 0 l 1042 0 l 1042 333 l 528 333 z m 860 799 b 621 611 710 799 621 729 b 860 424 621 493 710 424 b 1097 611 1008 424 1097 493 b 860 799 1097 729 1008 799 z "},"ŀ":{"ha":1065,"x_min":0,"x_max":0,"o":"m 69 0 l 514 0 l 514 1028 l 69 1028 z m 807 671 b 568 483 657 671 568 601 b 807 296 568 365 657 296 b 1044 483 956 296 1044 365 b 807 671 1044 601 956 671 z "},"Ł":{"ha":1090,"x_min":0,"x_max":0,"o":"m 528 333 l 528 506 l 744 597 l 744 736 l 528 644 l 528 972 l 69 972 l 69 450 l -49 400 l -49 261 l 69 311 l 69 0 l 1042 0 l 1042 333 z "},"ł":{"ha":724,"x_min":0,"x_max":0,"o":"m 724 757 l 585 697 l 585 1028 l 140 1028 l 140 507 l 0 447 l 0 342 l 140 401 l 140 0 l 585 0 l 585 592 l 724 651 z "},"Ń":{"ha":1368,"x_min":0,"x_max":0,"o":"m 989 1244 l 372 1129 l 389 1040 l 1011 1131 z m 69 0 l 493 0 l 493 501 l 501 501 l 779 0 l 1299 0 l 1299 972 l 875 972 l 875 475 l 867 475 l 607 972 l 69 972 z "},"ń":{"ha":1271,"x_min":0,"x_max":0,"o":"m 963 997 l 940 1111 l 324 996 l 340 907 z m 854 847 b 499 576 619 847 538 747 l 492 576 l 492 819 l 69 819 l 69 0 l 514 0 l 514 396 b 639 521 514 483 558 521 b 764 389 722 521 764 481 l 764 0 l 1208 0 l 1208 515 b 854 847 1208 751 1085 847 z "},"Ņ":{"ha":1368,"x_min":0,"x_max":0,"o":"m 875 972 l 875 475 l 867 475 l 607 972 l 69 972 l 69 0 l 493 0 l 493 501 l 501 501 l 779 0 l 1299 0 l 1299 972 z m 672 -67 b 553 -162 592 -67 553 -103 b 660 -250 553 -217 585 -250 b 725 -239 689 -250 710 -246 l 725 -246 b 651 -289 722 -282 685 -289 b 571 -271 604 -289 579 -275 l 571 -337 b 653 -347 600 -344 628 -347 b 801 -208 783 -347 801 -272 b 672 -67 801 -111 761 -67 z "},"ņ":{"ha":1271,"x_min":0,"x_max":0,"o":"m 854 847 b 499 576 619 847 538 747 l 492 576 l 492 819 l 69 819 l 69 0 l 514 0 l 514 396 b 639 521 514 483 558 521 b 764 389 722 521 764 481 l 764 0 l 1208 0 l 1208 515 b 854 847 1208 751 1085 847 z m 640 -67 b 521 -162 560 -67 521 -103 b 628 -250 521 -217 553 -250 b 693 -239 657 -250 678 -246 l 693 -246 b 619 -289 690 -282 653 -289 b 539 -271 572 -289 547 -275 l 539 -337 b 621 -347 568 -344 596 -347 b 769 -208 751 -347 769 -272 b 640 -67 769 -111 729 -67 z "},"Ň":{"ha":1368,"x_min":0,"x_max":0,"o":"m 339 1172 l 664 1043 l 719 1043 l 1044 1172 l 1003 1261 l 692 1147 l 381 1261 z m 69 0 l 493 0 l 493 501 l 501 501 l 779 0 l 1299 0 l 1299 972 l 875 972 l 875 475 l 867 475 l 607 972 l 69 972 z "},"ň":{"ha":1271,"x_min":0,"x_max":0,"o":"m 615 907 l 671 907 l 996 1036 l 954 1125 l 643 1011 l 332 1125 l 290 1036 z m 854 847 b 499 576 619 847 538 747 l 492 576 l 492 819 l 69 819 l 69 0 l 514 0 l 514 396 b 639 521 514 483 558 521 b 764 389 722 521 764 481 l 764 0 l 1208 0 l 1208 515 b 854 847 1208 751 1085 847 z "},"ŉ":{"ha":1597,"x_min":0,"x_max":0,"o":"m 144 1000 b -14 871 38 1000 -14 951 b 129 754 -14 800 26 754 b 218 769 168 754 197 761 l 217 761 b 119 704 211 711 161 704 b 8 728 53 704 21 721 l 8 638 b 118 625 43 629 81 625 b 318 811 296 625 318 726 b 144 1000 318 942 264 1000 z m 1181 847 b 825 576 946 847 864 747 l 818 576 l 818 819 l 396 819 l 396 0 l 840 0 l 840 396 b 965 521 840 483 885 521 b 1090 389 1049 521 1090 481 l 1090 0 l 1535 0 l 1535 515 b 1181 847 1535 751 1411 847 z "},"Ŋ":{"ha":1382,"x_min":0,"x_max":0,"o":"m 882 972 l 882 471 l 576 972 l 69 972 l 69 0 l 500 0 l 500 500 l 853 0 b 749 -61 853 -40 814 -61 b 632 -33 686 -61 647 -42 l 632 -260 b 917 -292 701 -278 799 -292 b 1313 -37 1104 -292 1313 -257 l 1313 972 z "},"ŋ":{"ha":1257,"x_min":0,"x_max":0,"o":"m 842 847 b 492 576 613 847 531 747 l 485 576 l 485 819 l 76 819 l 76 0 l 507 0 l 507 396 b 632 521 507 483 551 521 b 757 389 715 521 757 481 l 757 24 b 671 -57 757 -40 715 -57 b 583 -33 628 -57 597 -42 l 583 -260 b 832 -292 649 -278 738 -292 b 1174 -15 1024 -292 1174 -235 l 1174 515 b 842 847 1174 751 1050 847 z "},"Ō":{"ha":1403,"x_min":0,"x_max":0,"o":"m 383 1176 l 383 1074 l 1019 1074 l 1019 1176 z m 701 -28 b 1354 483 1149 -28 1354 133 b 701 1000 1354 838 1149 1000 b 49 483 254 1000 49 838 b 701 -28 49 133 254 -28 z m 701 674 b 882 476 825 674 882 611 b 701 278 882 340 825 278 b 521 476 578 278 521 340 b 701 674 521 611 578 674 z "},"ō":{"ha":1267,"x_min":0,"x_max":0,"o":"m 315 1038 l 315 935 l 951 935 l 951 1038 z m 633 -28 b 1218 404 1036 -28 1218 104 b 633 847 1218 706 1033 847 b 49 404 233 847 49 706 b 633 -28 49 104 231 -28 z m 633 556 b 794 393 744 556 794 504 b 633 231 794 282 744 231 b 472 393 522 231 472 282 b 633 556 472 504 522 556 z "},"Ő":{"ha":1403,"x_min":0,"x_max":0,"o":"m 599 1247 l 522 1043 l 667 1043 l 764 1247 z m 835 1247 l 743 1043 l 888 1043 l 1000 1247 z m 701 -28 b 1354 483 1149 -28 1354 133 b 701 1000 1354 838 1149 1000 b 49 483 254 1000 49 838 b 701 -28 49 133 254 -28 z m 701 674 b 882 476 825 674 882 611 b 701 278 882 340 825 278 b 521 476 578 278 521 340 b 701 674 521 611 578 674 z "},"ő":{"ha":1267,"x_min":0,"x_max":0,"o":"m 513 1111 l 436 907 l 581 907 l 678 1111 z m 749 1111 l 657 907 l 801 907 l 914 1111 z m 633 -28 b 1218 404 1036 -28 1218 104 b 633 847 1218 706 1033 847 b 49 404 233 847 49 706 b 633 -28 49 104 231 -28 z m 633 556 b 794 393 744 556 794 504 b 633 231 794 282 744 231 b 472 393 522 231 472 282 b 633 556 472 504 522 556 z "},"Œ":{"ha":1965,"x_min":0,"x_max":0,"o":"m 1910 683 l 1910 972 l 632 972 b 49 483 263 972 49 838 b 632 0 49 132 261 -3 l 1896 0 l 1896 275 l 1353 275 l 1353 385 l 1861 385 l 1861 574 l 1353 574 l 1353 683 z m 729 278 b 535 479 596 278 535 342 b 729 681 535 617 596 681 b 922 514 851 681 913 628 l 922 444 b 729 278 913 331 851 278 z "},"œ":{"ha":1989,"x_min":0,"x_max":0,"o":"m 1947 432 b 1433 847 1947 726 1761 847 b 1029 726 1251 847 1115 810 b 607 847 940 808 800 847 b 49 399 232 847 49 700 b 601 -28 49 100 231 -28 b 1029 86 799 -28 939 8 b 1432 -28 1113 8 1244 -28 b 1876 38 1588 -28 1757 -3 l 1876 274 b 1524 213 1828 256 1699 213 b 1274 314 1393 213 1300 236 l 1939 311 b 1947 432 1944 356 1947 396 z m 1433 592 b 1594 450 1536 592 1588 544 l 1267 447 b 1433 592 1274 544 1329 592 z m 640 231 b 472 393 522 231 472 282 b 640 556 472 504 522 556 b 808 393 758 556 808 504 b 640 231 808 282 758 231 z "},"Ŕ":{"ha":1354,"x_min":0,"x_max":0,"o":"m 944 1131 l 922 1244 l 306 1129 l 322 1040 z m 833 0 l 1319 0 l 1115 325 b 1306 625 1242 365 1306 454 b 822 972 1306 897 1146 972 l 69 972 l 69 0 l 528 0 l 528 278 l 713 278 z m 528 707 l 693 707 b 847 604 796 707 847 694 b 693 496 847 514 796 496 l 528 496 z "},"ŕ":{"ha":965,"x_min":0,"x_max":0,"o":"m 796 997 l 774 1111 l 157 996 l 174 907 z m 839 847 b 507 539 608 847 519 714 l 499 539 l 499 819 l 69 819 l 69 0 l 514 0 l 514 281 b 738 485 514 419 582 485 b 924 461 797 485 861 475 l 924 842 b 839 847 901 844 872 847 z "},"Ŗ":{"ha":1354,"x_min":0,"x_max":0,"o":"m 1115 325 b 1306 625 1242 365 1306 454 b 822 972 1306 897 1146 972 l 69 972 l 69 0 l 528 0 l 528 278 l 713 278 l 833 0 l 1319 0 z m 693 496 l 528 496 l 528 707 l 693 707 b 847 604 796 707 847 694 b 693 496 847 514 796 496 z m 668 -67 b 549 -162 588 -67 549 -103 b 656 -250 549 -217 581 -250 b 721 -239 685 -250 706 -246 l 721 -246 b 647 -289 718 -282 681 -289 b 567 -271 600 -289 575 -275 l 567 -337 b 649 -347 596 -344 624 -347 b 797 -208 779 -347 797 -272 b 668 -67 797 -111 757 -67 z "},"ŗ":{"ha":965,"x_min":0,"x_max":0,"o":"m 839 847 b 507 539 608 847 519 714 l 499 539 l 499 819 l 69 819 l 69 0 l 514 0 l 514 281 b 738 485 514 419 582 485 b 924 461 797 485 861 475 l 924 842 b 839 847 901 844 872 847 z m 290 -67 b 171 -162 210 -67 171 -103 b 278 -250 171 -217 203 -250 b 343 -239 307 -250 328 -246 l 343 -246 b 269 -289 340 -282 303 -289 b 189 -271 222 -289 197 -275 l 189 -337 b 271 -347 218 -344 246 -347 b 419 -208 401 -347 419 -272 b 290 -67 419 -111 379 -67 z "},"Ř":{"ha":1354,"x_min":0,"x_max":0,"o":"m 597 1043 l 653 1043 l 978 1172 l 936 1261 l 625 1147 l 314 1261 l 272 1172 z m 833 0 l 1319 0 l 1115 325 b 1306 625 1242 365 1306 454 b 822 972 1306 897 1146 972 l 69 972 l 69 0 l 528 0 l 528 278 l 713 278 z m 528 707 l 693 707 b 847 604 796 707 847 694 b 693 496 847 514 796 496 l 528 496 z "},"ř":{"ha":965,"x_min":0,"x_max":0,"o":"m 449 907 l 504 907 l 829 1036 l 788 1125 l 476 1011 l 165 1125 l 124 1036 z m 839 847 b 507 539 608 847 519 714 l 499 539 l 499 819 l 69 819 l 69 0 l 514 0 l 514 281 b 738 485 514 419 582 485 b 924 461 797 485 861 475 l 924 842 b 839 847 901 844 872 847 z "},"Ś":{"ha":1167,"x_min":0,"x_max":0,"o":"m 878 1244 l 261 1129 l 278 1040 l 900 1131 z m 1114 622 l 1114 953 b 611 1000 956 983 767 1000 b 28 671 189 1000 28 876 b 688 304 28 256 688 436 b 515 247 688 276 658 247 b 78 361 303 247 157 311 l 78 38 b 560 -28 178 3 350 -28 b 1139 297 994 -28 1139 101 b 486 643 1139 713 486 522 b 667 693 486 671 521 693 b 1114 622 849 693 1010 658 z "},"ś":{"ha":1021,"x_min":0,"x_max":0,"o":"m 801 1111 l 185 996 l 201 907 l 824 997 z m 951 515 l 951 806 b 536 847 833 832 675 847 b 35 568 146 847 35 724 b 596 268 35 219 596 364 b 436 219 596 239 544 219 b 75 306 268 219 143 267 l 75 31 b 508 -28 175 -1 333 -28 b 986 243 865 -28 986 83 b 438 531 986 582 438 431 b 596 572 438 551 461 572 b 951 515 758 572 878 542 z "},"Ş":{"ha":1167,"x_min":0,"x_max":0,"o":"m 1139 297 b 486 643 1139 713 486 522 b 667 693 486 671 521 693 b 1114 622 849 693 1010 658 l 1114 953 b 611 1000 956 983 767 1000 b 28 671 189 1000 28 876 b 688 304 28 256 688 436 b 515 247 688 276 658 247 b 78 361 303 247 157 311 l 78 38 b 506 -28 169 6 321 -22 l 469 -150 l 568 -150 b 621 -185 608 -150 621 -164 b 549 -221 621 -206 608 -221 b 421 -201 494 -221 446 -208 l 421 -304 b 569 -319 464 -314 514 -319 b 769 -190 714 -319 769 -282 b 614 -65 769 -85 696 -65 l 613 -65 l 628 -26 b 1139 297 1010 -14 1139 113 z "},"ş":{"ha":1021,"x_min":0,"x_max":0,"o":"m 986 243 b 438 531 986 582 438 431 b 596 572 438 551 461 572 b 951 515 758 572 878 542 l 951 806 b 536 847 833 832 675 847 b 35 568 146 847 35 724 b 596 268 35 219 596 364 b 436 219 596 239 544 219 b 75 306 268 219 143 267 l 75 31 b 417 -25 157 4 278 -18 l 397 -89 l 379 -150 l 478 -150 b 531 -185 518 -150 531 -164 b 458 -221 531 -206 518 -221 b 331 -201 404 -221 356 -208 l 331 -304 b 479 -319 374 -314 424 -319 b 679 -190 624 -319 679 -282 b 524 -65 679 -85 606 -65 l 522 -65 l 538 -28 b 986 243 872 -22 986 88 z "},"Š":{"ha":1167,"x_min":0,"x_max":0,"o":"m 228 1172 l 553 1043 l 608 1043 l 933 1172 l 892 1261 l 581 1147 l 269 1261 z m 1114 622 l 1114 953 b 611 1000 956 983 767 1000 b 28 671 189 1000 28 876 b 688 304 28 256 688 436 b 515 247 688 276 658 247 b 78 361 303 247 157 311 l 78 38 b 560 -28 178 3 350 -28 b 1139 297 994 -28 1139 101 b 486 643 1139 713 486 522 b 667 693 486 671 521 693 b 1114 622 849 693 1010 658 z "},"š":{"ha":1021,"x_min":0,"x_max":0,"o":"m 151 1036 l 476 907 l 532 907 l 857 1036 l 815 1125 l 504 1011 l 193 1125 z m 951 515 l 951 806 b 536 847 833 832 675 847 b 35 568 146 847 35 724 b 596 268 35 219 596 364 b 436 219 596 239 544 219 b 75 306 268 219 143 267 l 75 31 b 508 -28 175 -1 333 -28 b 986 243 865 -28 986 83 b 438 531 986 582 438 431 b 596 572 438 551 461 572 b 951 515 758 572 878 542 z "},"Ţ":{"ha":1167,"x_min":0,"x_max":0,"o":"m 1139 972 l 28 972 l 28 646 l 354 646 l 354 0 l 524 0 l 497 -89 l 479 -150 l 578 -150 b 631 -185 618 -150 631 -164 b 558 -221 631 -206 618 -221 b 431 -201 504 -221 456 -208 l 431 -304 b 579 -319 474 -314 524 -319 b 779 -190 724 -319 779 -282 b 624 -65 779 -85 706 -65 l 622 -65 l 647 0 l 813 0 l 813 646 l 1139 646 z "},"Ť":{"ha":1167,"x_min":0,"x_max":0,"o":"m 563 1043 l 618 1043 l 943 1172 l 901 1261 l 590 1147 l 279 1261 l 238 1172 z m 1139 972 l 28 972 l 28 646 l 354 646 l 354 0 l 813 0 l 813 646 l 1139 646 z "},"ť":{"ha":1025,"x_min":0,"x_max":0,"o":"m 953 1111 l 758 1111 l 731 875 l 893 875 z m 997 543 l 997 819 l 642 819 l 642 1000 l 197 944 l 197 819 l 14 819 l 14 543 l 197 543 l 197 264 b 586 -28 197 43 333 -28 b 950 15 732 -28 867 -4 l 950 271 b 799 244 917 258 867 244 b 642 369 685 244 642 283 l 642 543 z "},"Ŧ":{"ha":1167,"x_min":0,"x_max":0,"o":"m 1139 646 l 1139 972 l 28 972 l 28 646 l 354 646 l 354 542 l 211 542 l 211 457 l 354 457 l 354 0 l 813 0 l 813 457 l 975 457 l 975 542 l 813 542 l 813 646 z "},"ŧ":{"ha":1025,"x_min":0,"x_max":0,"o":"m 997 543 l 997 819 l 642 819 l 642 1000 l 197 944 l 197 819 l 14 819 l 14 543 l 197 543 l 197 465 l 75 465 l 75 381 l 197 381 l 197 264 b 586 -28 197 43 333 -28 b 950 15 732 -28 867 -4 l 950 271 b 799 244 917 258 867 244 b 642 369 685 244 642 283 l 642 381 l 839 381 l 839 465 l 642 465 l 642 543 z "},"Ũ":{"ha":1286,"x_min":0,"x_max":0,"o":"m 301 1053 l 421 1053 b 474 1125 421 1096 425 1125 b 832 1050 551 1125 711 1050 b 982 1229 940 1050 982 1110 l 860 1229 b 817 1157 860 1183 857 1157 b 449 1232 749 1157 567 1232 b 301 1053 343 1232 301 1172 z m 1231 972 l 772 972 l 772 404 b 643 288 772 303 715 288 b 514 404 571 288 514 303 l 514 972 l 56 972 l 56 388 b 643 -28 56 60 272 -28 b 1231 388 1014 -28 1231 60 z "},"ũ":{"ha":1257,"x_min":0,"x_max":0,"o":"m 435 982 b 793 907 513 982 672 907 b 943 1086 901 907 943 967 l 821 1086 b 778 1014 821 1040 818 1014 b 410 1089 710 1014 528 1089 b 263 910 304 1089 263 1029 l 382 910 b 435 982 382 953 386 982 z m 743 819 l 743 396 b 625 271 743 308 699 271 b 507 403 549 271 507 311 l 507 819 l 63 819 l 63 304 b 410 -28 63 68 190 -28 b 758 215 644 -28 714 79 l 765 215 l 765 0 l 1188 0 l 1188 819 z "},"Ū":{"ha":1286,"x_min":0,"x_max":0,"o":"m 324 1176 l 324 1074 l 960 1074 l 960 1176 z m 1231 972 l 772 972 l 772 404 b 643 288 772 303 715 288 b 514 404 571 288 514 303 l 514 972 l 56 972 l 56 388 b 643 -28 56 60 272 -28 b 1231 388 1014 -28 1231 60 z "},"ū":{"ha":1257,"x_min":0,"x_max":0,"o":"m 942 1038 l 306 1038 l 306 935 l 942 935 z m 743 819 l 743 396 b 625 271 743 308 699 271 b 507 403 549 271 507 311 l 507 819 l 63 819 l 63 304 b 410 -28 63 68 190 -28 b 758 215 644 -28 714 79 l 765 215 l 765 0 l 1188 0 l 1188 819 z "},"Ů":{"ha":1286,"x_min":0,"x_max":0,"o":"m 642 1032 b 826 1146 768 1032 826 1068 b 642 1260 826 1224 768 1260 b 457 1146 515 1260 457 1224 b 642 1032 457 1068 515 1032 z m 642 1097 b 567 1146 593 1097 567 1113 b 642 1194 567 1179 593 1194 b 717 1146 690 1194 717 1179 b 642 1097 717 1113 690 1097 z m 1231 972 l 772 972 l 772 404 b 643 288 772 303 715 288 b 514 404 571 288 514 303 l 514 972 l 56 972 l 56 388 b 643 -28 56 60 272 -28 b 1231 388 1014 -28 1231 60 z "},"ů":{"ha":1257,"x_min":0,"x_max":0,"o":"m 624 908 b 808 1022 750 908 808 944 b 624 1136 808 1100 750 1136 b 439 1022 497 1136 439 1100 b 624 908 439 944 497 908 z m 624 1071 b 699 1022 672 1071 699 1056 b 624 974 699 989 672 974 b 549 1022 575 974 549 989 b 624 1071 549 1056 575 1071 z m 743 819 l 743 396 b 625 271 743 308 699 271 b 507 403 549 271 507 311 l 507 819 l 63 819 l 63 304 b 410 -28 63 68 190 -28 b 758 215 644 -28 714 79 l 765 215 l 765 0 l 1188 0 l 1188 819 z "},"Ű":{"ha":1286,"x_min":0,"x_max":0,"o":"m 539 1247 l 463 1043 l 607 1043 l 704 1247 z m 775 1247 l 683 1043 l 828 1043 l 940 1247 z m 1231 972 l 772 972 l 772 404 b 643 288 772 303 715 288 b 514 404 571 288 514 303 l 514 972 l 56 972 l 56 388 b 643 -28 56 60 272 -28 b 1231 388 1014 -28 1231 60 z "},"ű":{"ha":1257,"x_min":0,"x_max":0,"o":"m 668 1111 l 503 1111 l 426 907 l 571 907 z m 792 907 l 904 1111 l 739 1111 l 647 907 z m 743 819 l 743 396 b 625 271 743 308 699 271 b 507 403 549 271 507 311 l 507 819 l 63 819 l 63 304 b 410 -28 63 68 190 -28 b 758 215 644 -28 714 79 l 765 215 l 765 0 l 1188 0 l 1188 819 z "},"Ų":{"ha":1286,"x_min":0,"x_max":0,"o":"m 772 972 l 772 404 b 643 288 772 303 715 288 b 514 404 571 288 514 303 l 514 972 l 56 972 l 56 388 b 604 -28 56 71 257 -21 b 542 -150 572 -56 542 -96 b 715 -278 542 -226 603 -278 b 821 -264 747 -278 783 -274 l 821 -154 b 765 -161 803 -158 783 -161 b 692 -111 721 -161 692 -144 b 744 -25 692 -82 714 -50 b 1231 388 1053 -8 1231 90 l 1231 972 z "},"ų":{"ha":1257,"x_min":0,"x_max":0,"o":"m 903 0 l 1188 0 l 1188 819 l 743 819 l 743 396 b 625 271 743 308 699 271 b 507 403 549 271 507 311 l 507 819 l 63 819 l 63 304 b 410 -28 63 68 190 -28 b 758 215 644 -28 714 79 l 765 215 l 765 3 b 661 -150 728 -19 661 -71 b 835 -278 661 -226 722 -278 b 940 -264 867 -278 903 -274 l 940 -154 b 885 -161 922 -158 903 -161 b 811 -111 840 -161 811 -144 b 903 0 811 -71 853 -26 z "},"Ŵ":{"ha":1760,"x_min":0,"x_max":0,"o":"m 549 1132 l 590 1043 l 901 1157 l 1213 1043 l 1254 1132 l 929 1261 l 874 1261 z m 7 972 l 274 0 l 788 0 l 886 474 l 894 474 l 1000 0 l 1514 0 l 1753 972 l 1322 972 l 1228 346 l 1219 346 l 1107 972 l 688 972 l 575 346 l 567 346 l 458 972 z "},"ŵ":{"ha":1694,"x_min":0,"x_max":0,"o":"m 511 982 l 553 893 l 864 1007 l 1175 893 l 1217 982 l 892 1111 l 836 1111 z m 14 819 l 226 0 l 764 0 l 854 468 l 861 468 l 951 0 l 1472 0 l 1681 819 l 1292 819 l 1213 271 l 1206 271 l 1110 819 l 619 819 l 536 271 l 529 271 l 438 819 z "},"Ŷ":{"ha":1253,"x_min":0,"x_max":0,"o":"m 272 1132 l 314 1043 l 625 1157 l 936 1043 l 978 1132 l 653 1261 l 597 1261 z m -28 972 l 396 292 l 396 0 l 854 0 l 854 292 l 1281 972 l 801 972 l 642 628 l 633 628 l 465 972 z "},"ŷ":{"ha":1217,"x_min":0,"x_max":0,"o":"m 233 982 l 275 893 l 586 1007 l 897 893 l 939 982 l 614 1111 l 558 1111 z m 0 819 l 293 68 l 611 68 l 610 61 b 390 -39 601 19 560 -39 b 111 14 268 -39 167 -8 l 111 -274 b 464 -319 196 -299 325 -319 b 974 74 849 -319 904 -140 l 1217 819 l 765 819 l 635 242 l 626 242 l 458 819 z "},"Ÿ":{"ha":1253,"x_min":0,"x_max":0,"o":"m 457 1043 b 586 1142 538 1043 586 1081 b 457 1240 586 1203 538 1240 b 328 1142 376 1240 328 1203 b 457 1043 328 1081 376 1043 z m 792 1043 b 921 1142 872 1043 921 1081 b 792 1240 921 1203 872 1240 b 663 1142 711 1240 663 1203 b 792 1043 663 1081 711 1043 z m -28 972 l 396 292 l 396 0 l 854 0 l 854 292 l 1281 972 l 801 972 l 642 628 l 633 628 l 465 972 z "},"Ź":{"ha":1178,"x_min":0,"x_max":0,"o":"m 874 1244 l 257 1129 l 274 1040 l 896 1131 z m 56 646 l 614 646 l 614 638 l 69 319 l 69 0 l 1136 0 l 1136 285 l 592 285 l 592 293 l 1122 618 l 1122 972 l 56 972 z "},"ź":{"ha":1072,"x_min":0,"x_max":0,"o":"m 813 1111 l 196 996 l 213 907 l 835 997 z m 49 535 l 529 535 l 529 528 l 63 288 l 63 0 l 1024 0 l 1024 246 l 550 246 l 550 253 l 1010 489 l 1010 822 l 49 822 z "},"Ż":{"ha":1178,"x_min":0,"x_max":0,"o":"m 563 1043 b 692 1142 643 1043 692 1081 b 563 1240 692 1203 643 1240 b 433 1142 482 1240 433 1203 b 563 1043 433 1081 482 1043 z m 56 646 l 614 646 l 614 638 l 69 319 l 69 0 l 1136 0 l 1136 285 l 592 285 l 592 293 l 1122 618 l 1122 972 l 56 972 z "},"ż":{"ha":1072,"x_min":0,"x_max":0,"o":"m 519 903 b 656 1007 604 903 656 943 b 519 1111 656 1071 604 1111 b 383 1007 435 1111 383 1071 b 519 903 383 943 435 903 z m 49 535 l 529 535 l 529 528 l 63 288 l 63 0 l 1024 0 l 1024 246 l 550 246 l 550 253 l 1010 489 l 1010 822 l 49 822 z "},"Ž":{"ha":1178,"x_min":0,"x_max":0,"o":"m 224 1172 l 549 1043 l 604 1043 l 929 1172 l 888 1261 l 576 1147 l 265 1261 z m 56 646 l 614 646 l 614 638 l 69 319 l 69 0 l 1136 0 l 1136 285 l 592 285 l 592 293 l 1122 618 l 1122 972 l 56 972 z "},"ž":{"ha":1072,"x_min":0,"x_max":0,"o":"m 163 1036 l 488 907 l 543 907 l 868 1036 l 826 1125 l 515 1011 l 204 1125 z m 49 535 l 529 535 l 529 528 l 63 288 l 63 0 l 1024 0 l 1024 246 l 550 246 l 550 253 l 1010 489 l 1010 822 l 49 822 z "},"Ǽ":{"ha":1876,"x_min":0,"x_max":0,"o":"m 1390 1131 l 1368 1244 l 751 1129 l 768 1040 z m 1264 276 l 1264 376 l 1793 376 l 1793 579 l 1264 579 l 1264 683 l 1814 683 l 1814 972 l 443 972 l -14 0 l 431 0 l 507 169 l 806 169 l 806 0 l 1821 0 l 1821 276 z m 792 806 l 806 806 l 806 413 l 615 413 z "},"ǽ":{"ha":1846,"x_min":0,"x_max":0,"o":"m 1257 997 l 1235 1111 l 618 996 l 635 907 z m 1804 431 b 1283 847 1804 726 1619 847 b 910 768 1131 847 1004 822 b 551 847 836 821 721 847 b 58 779 342 847 157 807 l 58 507 b 443 574 143 536 279 574 b 686 461 604 574 686 538 l 686 456 b 467 469 610 465 535 469 b 49 217 196 469 49 403 b 369 -28 49 36 189 -28 b 774 176 578 -28 699 56 b 1289 -28 849 44 1011 -28 b 1726 36 1456 -28 1606 -1 l 1726 272 b 1385 214 1685 257 1553 214 b 1138 324 1256 214 1169 239 l 1796 321 b 1804 431 1801 357 1804 396 z m 1290 592 b 1449 458 1388 592 1438 546 l 1126 456 b 1290 592 1139 539 1188 592 z m 501 192 b 388 260 428 192 388 217 b 543 335 388 294 414 335 b 685 322 585 335 635 331 b 501 192 672 253 617 192 z "},"Ǿ":{"ha":1403,"x_min":0,"x_max":0,"o":"m 1021 1131 l 999 1244 l 382 1129 l 399 1040 z m 1533 950 l 1472 1026 l 1222 851 b 701 1000 1115 953 944 1000 b 49 483 254 1000 49 838 b 176 124 49 326 90 207 l 0 1 l 63 -76 l 260 61 b 701 -28 365 1 511 -28 b 1354 483 1149 -28 1354 133 b 1283 776 1354 601 1331 699 z m 521 476 b 701 674 521 611 578 674 b 857 599 779 674 829 649 l 536 375 b 521 476 526 403 521 436 z m 882 476 b 701 278 882 340 825 278 b 600 299 661 278 626 285 l 882 496 z "},"ǿ":{"ha":1267,"x_min":0,"x_max":0,"o":"m 953 997 l 931 1111 l 314 996 l 331 907 z m 1246 758 l 1192 838 l 1064 747 b 633 847 967 815 825 847 b 49 404 233 847 49 706 b 150 110 49 276 82 179 l 53 42 l 107 -36 l 231 50 b 633 -28 325 -3 458 -28 b 1218 404 1036 -28 1218 104 b 1135 681 1218 519 1192 611 z m 472 393 b 633 556 472 504 522 556 b 744 525 682 556 719 546 l 478 339 b 472 393 474 354 472 372 z m 794 393 b 633 231 794 282 744 231 b 526 257 588 231 553 239 l 790 440 b 794 393 793 426 794 411 z "},"ș":{"ha":1021,"x_min":0,"x_max":0,"o":"m 438 531 b 596 572 438 551 461 572 b 951 515 758 572 878 542 l 951 806 b 536 847 833 832 675 847 b 35 568 146 847 35 724 b 596 268 35 219 596 364 b 436 219 596 239 544 219 b 75 306 268 219 143 267 l 75 31 b 508 -28 175 -1 333 -28 b 986 243 865 -28 986 83 b 438 531 986 582 438 431 z m 485 -67 b 365 -162 404 -67 365 -103 b 472 -250 365 -217 397 -250 b 538 -239 501 -250 522 -246 l 538 -246 b 464 -289 535 -282 497 -289 b 383 -271 417 -289 392 -275 l 383 -337 b 465 -347 413 -344 440 -347 b 614 -208 596 -347 614 -272 b 485 -67 614 -111 574 -67 z "},"ț":{"ha":1032,"x_min":0,"x_max":0,"o":"m 997 543 l 997 819 l 642 819 l 642 1000 l 197 944 l 197 819 l 14 819 l 14 543 l 197 543 l 197 264 b 586 -28 197 43 333 -28 b 950 15 732 -28 867 -4 l 950 271 b 799 244 917 258 867 244 b 642 369 685 244 642 283 l 642 543 z m 507 -67 b 388 -162 426 -67 388 -103 b 494 -250 388 -217 419 -250 b 560 -239 524 -250 544 -246 l 560 -246 b 486 -289 557 -282 519 -289 b 406 -271 439 -289 414 -275 l 406 -337 b 488 -347 435 -344 463 -347 b 636 -208 618 -347 636 -272 b 507 -67 636 -111 596 -67 z "},"ȷ":{"ha":639,"x_min":0,"x_max":0,"o":"m 569 -31 l 569 819 l 132 819 l 132 39 b 28 -50 132 -26 90 -50 b -69 -35 -6 -50 -40 -43 l -69 -294 b 194 -319 22 -314 125 -319 b 569 -31 481 -319 569 -226 z "},"–":{"ha":1222,"x_min":0,"x_max":0,"o":"m 56 279 l 1167 279 l 1167 540 l 56 540 z "},"—":{"ha":1653,"x_min":0,"x_max":0,"o":"m 56 278 l 1597 278 l 1597 539 l 56 539 z "},"‘":{"ha":488,"x_min":0,"x_max":0,"o":"m 272 817 b 164 799 225 817 189 808 l 165 808 b 283 878 171 869 232 878 b 418 849 364 878 403 857 l 418 958 b 285 974 376 968 331 974 b 42 747 69 974 42 850 b 253 518 42 589 108 518 b 446 675 383 518 446 576 b 272 817 446 763 397 817 z "},"’":{"ha":488,"x_min":0,"x_max":0,"o":"m 235 974 b 42 817 104 974 42 915 b 215 675 42 729 90 675 b 324 693 263 675 299 683 l 322 683 b 204 614 317 622 256 614 b 69 643 124 614 85 635 l 69 533 b 203 518 111 524 157 518 b 446 744 418 518 446 642 b 235 974 446 903 379 974 z "},"‚":{"ha":488,"x_min":0,"x_max":0,"o":"m 235 299 b 42 142 104 299 42 240 b 215 0 42 54 90 0 b 324 18 263 0 299 8 l 322 8 b 204 -61 317 -53 256 -61 b 69 -32 124 -61 85 -40 l 69 -142 b 203 -157 111 -151 157 -157 b 446 69 418 -157 446 -33 b 235 299 446 228 379 299 z "},"“":{"ha":946,"x_min":0,"x_max":0,"o":"m 272 817 b 164 799 225 817 189 808 l 165 808 b 283 878 171 869 232 878 b 418 849 364 878 403 857 l 418 958 b 285 974 376 968 331 974 b 42 747 69 974 42 850 b 253 518 42 589 108 518 b 446 675 383 518 446 576 b 272 817 446 763 397 817 z m 731 817 b 622 799 683 817 647 808 l 624 808 b 742 878 629 869 690 878 b 876 849 822 878 861 857 l 876 958 b 743 974 835 968 789 974 b 500 747 528 974 500 850 b 711 518 500 589 567 518 b 904 675 842 518 904 576 b 731 817 904 763 856 817 z "},"”":{"ha":946,"x_min":0,"x_max":0,"o":"m 235 974 b 42 817 104 974 42 915 b 215 675 42 729 90 675 b 324 693 263 675 299 683 l 322 683 b 204 614 317 622 256 614 b 69 643 124 614 85 635 l 69 533 b 203 518 111 524 157 518 b 446 744 418 518 446 642 b 235 974 446 903 379 974 z m 693 974 b 500 817 563 974 500 915 b 674 675 500 729 549 675 b 782 693 721 675 757 683 l 781 683 b 663 614 775 622 714 614 b 528 643 582 614 543 635 l 528 533 b 661 518 569 524 615 518 b 904 744 876 518 904 642 b 693 974 904 903 838 974 z "},"„":{"ha":946,"x_min":0,"x_max":0,"o":"m 235 299 b 42 142 104 299 42 240 b 215 0 42 54 90 0 b 324 18 263 0 299 8 l 322 8 b 204 -61 317 -53 256 -61 b 69 -32 124 -61 85 -40 l 69 -142 b 203 -157 111 -151 157 -157 b 446 69 418 -157 446 -33 b 235 299 446 228 379 299 z m 693 299 b 500 142 563 299 500 240 b 674 0 500 54 549 0 b 782 18 721 0 757 8 l 781 8 b 663 -61 775 -53 714 -61 b 528 -32 582 -61 543 -40 l 528 -142 b 661 -157 569 -151 615 -157 b 904 69 876 -157 904 -33 b 693 299 904 228 838 299 z "},"†":{"ha":917,"x_min":0,"x_max":0,"o":"m 889 819 l 667 819 l 667 972 l 236 972 l 236 819 l 14 819 l 14 568 l 236 568 l 236 0 l 667 0 l 667 568 l 889 568 z "},"‡":{"ha":1000,"x_min":0,"x_max":0,"o":"m 931 568 l 931 819 l 694 819 l 694 972 l 306 972 l 306 819 l 69 819 l 69 568 l 306 568 l 306 407 l 69 407 l 69 156 l 306 156 l 306 0 l 694 0 l 694 156 l 931 156 l 931 407 l 694 407 l 694 568 z "},"•":{"ha":547,"x_min":0,"x_max":0,"o":"m 274 178 b 506 410 419 178 506 264 b 274 642 506 556 419 642 b 42 410 128 642 42 556 b 274 178 42 264 128 178 z "},"…":{"ha":1640,"x_min":0,"x_max":0,"o":"m 281 347 b 42 160 131 347 42 278 b 281 -28 42 42 131 -28 b 518 160 429 -28 518 42 b 281 347 518 278 429 347 z m 1375 347 b 1136 160 1225 347 1136 278 b 1375 -28 1136 42 1225 -28 b 1613 160 1524 -28 1613 42 b 1375 347 1613 278 1524 347 z m 828 343 b 589 156 678 343 589 274 b 828 -32 589 38 678 -32 b 1065 156 976 -32 1065 38 b 828 343 1065 274 976 343 z "},"‰":{"ha":1992,"x_min":0,"x_max":0,"o":"m 371 506 b 672 753 560 506 672 597 b 371 1000 672 908 560 1000 b 71 753 182 1000 71 908 b 371 506 71 597 182 506 z m 1111 1000 l 682 546 l 735 479 l 1281 796 z m 371 650 b 289 750 319 650 289 690 b 371 847 289 810 319 847 b 453 750 422 847 453 810 b 371 650 453 690 422 650 z m 239 -28 l 668 426 l 615 493 l 69 176 z m 968 -28 b 1269 219 1157 -28 1269 64 b 968 467 1269 375 1157 467 b 668 219 779 467 668 375 b 968 -28 668 64 779 -28 z m 1621 -28 b 1922 219 1810 -28 1922 64 b 1621 467 1922 375 1810 467 b 1321 219 1432 467 1321 375 b 1621 -28 1321 64 1432 -28 z m 968 117 b 886 217 917 117 886 157 b 968 314 886 276 917 314 b 1050 217 1019 314 1050 276 b 968 117 1050 157 1019 117 z m 1621 117 b 1539 217 1569 117 1539 157 b 1621 314 1539 276 1569 314 b 1703 217 1672 314 1703 276 b 1621 117 1703 157 1672 117 z "},"‹":{"ha":529,"x_min":0,"x_max":0,"o":"m 181 694 l 42 410 l 181 125 l 501 125 l 356 410 l 501 694 z "},"›":{"ha":529,"x_min":0,"x_max":0,"o":"m 349 694 l 28 694 l 174 410 l 28 125 l 349 125 l 488 410 z "},"™":{"ha":1461,"x_min":0,"x_max":0,"o":"m 625 972 l 14 972 l 14 799 l 215 799 l 215 485 l 424 485 l 424 799 l 625 799 z m 1133 972 l 1072 713 l 1068 713 l 1006 972 l 682 972 l 682 485 l 883 485 l 883 818 l 889 818 l 981 485 l 1142 485 l 1235 818 l 1239 818 l 1239 485 l 1447 485 l 1447 972 z "}}}
